<svg width="30" height="20" viewBox="0 0 30 20" fill="none" xmlns="http://www.w3.org/2000/svg">
<path d="M11.1832 0.483232C11.0283 0.327017 10.844 0.203027 10.6409 0.118413C10.4378 0.0337985 10.2199 -0.00976562 9.9999 -0.00976562C9.77988 -0.00976562 9.56204 0.0337985 9.35894 0.118413C9.15584 0.203027 8.9715 0.327017 8.81656 0.483232L0.483232 8.81656C0.327017 8.9715 0.203027 9.15584 0.118413 9.35894C0.0337981 9.56204 -0.00976562 9.77988 -0.00976562 9.9999C-0.00976563 10.2199 0.0337981 10.4378 0.118413 10.6409C0.203027 10.844 0.327017 11.0283 0.483232 11.1832L8.81656 19.5166C8.9715 19.6728 9.15584 19.7968 9.35894 19.8814C9.56204 19.966 9.77988 20.0096 9.9999 20.0096C10.2199 20.0096 10.4378 19.966 10.6409 19.8814C10.844 19.7968 11.0283 19.6728 11.1832 19.5166C11.3394 19.3616 11.4634 19.1773 11.548 18.9742C11.6327 18.7711 11.6762 18.5533 11.6762 18.3332C11.6762 18.1132 11.6327 17.8954 11.548 17.6923C11.4634 17.4892 11.3394 17.3048 11.1832 17.1499L4.01656 9.9999L11.1832 2.8499C11.3394 2.69496 11.4634 2.51062 11.548 2.30753C11.6327 2.10443 11.6762 1.88658 11.6762 1.66656C11.6762 1.44655 11.6327 1.2287 11.548 1.0256C11.4634 0.822505 11.3394 0.63817 11.1832 0.483232ZM29.5166 8.81656L21.1832 0.483232C21.0278 0.327834 20.8434 0.204566 20.6403 0.120466C20.4373 0.0363652 20.2197 -0.00692129 19.9999 -0.00692129C19.5561 -0.00692129 19.1304 0.169392 18.8166 0.483232C18.6612 0.638629 18.5379 0.823113 18.4538 1.02615C18.3697 1.22919 18.3264 1.4468 18.3264 1.66656C18.3264 2.1104 18.5027 2.53606 18.8166 2.8499L25.9832 9.9999L18.8166 17.1499C18.6604 17.3048 18.5364 17.4892 18.4517 17.6923C18.3671 17.8954 18.3236 18.1132 18.3236 18.3332C18.3236 18.5533 18.3671 18.7711 18.4517 18.9742C18.5364 19.1773 18.6604 19.3616 18.8166 19.5166C18.9715 19.6728 19.1558 19.7968 19.3589 19.8814C19.562 19.966 19.7799 20.0096 19.9999 20.0096C20.2199 20.0096 20.4378 19.966 20.6409 19.8814C20.844 19.7968 21.0283 19.6728 21.1832 19.5166L29.5166 11.1832C29.6728 11.0283 29.7968 10.844 29.8814 10.6409C29.966 10.4378 30.0096 10.2199 30.0096 9.9999C30.0096 9.77988 29.966 9.56204 29.8814 9.35894C29.7968 9.15584 29.6728 8.9715 29.5166 8.81656Z" fill="#2B2A29"/>
</svg>
