<svg width="1620" height="520" viewBox="0 0 1620 520" fill="none" xmlns="http://www.w3.org/2000/svg">
<g filter="url(#filter0_d_0_2921)">
<path d="M150.495 50C155.513 100.533 198.147 140 250 140C301.853 140 344.487 100.533 349.505 50H590.495C595.513 100.533 638.147 140 690 140C741.853 140 784.487 100.533 789.505 50H1030.5C1035.51 100.533 1078.15 140 1130 140C1181.85 140 1224.49 100.533 1229.5 50H1530C1535.52 50 1540 54.4771 1540 60V410H80V60C80 54.4771 84.4772 50 90 50H150.495Z" fill="white"/>
</g>
<defs>
<filter id="filter0_d_0_2921" x="0" y="0" width="1620" height="520" filterUnits="userSpaceOnUse" color-interpolation-filters="sRGB">
<feFlood flood-opacity="0" result="BackgroundImageFix"/>
<feColorMatrix in="SourceAlpha" type="matrix" values="0 0 0 0 0 0 0 0 0 0 0 0 0 0 0 0 0 0 127 0" result="hardAlpha"/>
<feOffset dy="30"/>
<feGaussianBlur stdDeviation="40"/>
<feComposite in2="hardAlpha" operator="out"/>
<feColorMatrix type="matrix" values="0 0 0 0 0.168627 0 0 0 0 0.164706 0 0 0 0 0.160784 0 0 0 0.1 0"/>
<feBlend mode="normal" in2="BackgroundImageFix" result="effect1_dropShadow_0_2921"/>
<feBlend mode="normal" in="SourceGraphic" in2="effect1_dropShadow_0_2921" result="shape"/>
</filter>
</defs>
</svg>
