<svg width="210" height="210" viewBox="0 0 210 210" fill="none" xmlns="http://www.w3.org/2000/svg">
<path d="M62.5003 178.612C46.5569 169.407 34.0329 155.275 26.8119 138.34C19.5908 121.406 18.063 102.584 22.4583 84.7069C26.8535 66.8293 36.9342 50.862 51.1842 39.2062C65.4343 27.5503 83.0835 20.8361 101.478 20.0731C119.872 19.3101 138.016 24.5397 153.183 34.9753C168.349 45.411 179.717 60.4886 185.578 77.9407C191.439 95.3928 191.475 114.276 185.681 131.75C179.887 149.225 168.577 164.346 153.451 174.84L150.403 170.446C164.577 160.612 175.176 146.443 180.605 130.067C186.035 113.692 186.001 95.9972 180.509 79.6431C175.017 63.2889 164.364 49.1599 150.151 39.3807C135.939 29.6016 118.936 24.701 101.699 25.416C84.4623 26.131 67.9235 32.4229 54.5699 43.3454C41.2163 54.268 31.7699 69.2307 27.6512 85.9836C23.5324 102.736 24.9641 120.374 31.7309 136.243C38.4976 152.112 50.2337 165.355 65.1741 173.981L62.5003 178.612Z" fill="#FECC00"/>
<path d="M168.394 121.432C164.75 135.03 156.79 147.078 145.71 155.763C134.631 164.449 121.031 169.303 106.956 169.594C92.8805 169.886 79.0911 165.6 67.6611 157.381C56.2312 149.163 47.7785 137.455 43.5744 124.019C39.3703 110.583 39.6419 96.1459 44.3485 82.8778C49.055 69.6097 57.942 58.2283 69.6731 50.4451C81.4041 42.662 95.345 38.8979 109.399 39.7189C123.453 40.54 136.861 45.9017 147.606 54.9978L139.28 64.8328C130.665 57.5399 119.916 53.2411 108.648 52.5828C97.3796 51.9246 86.2024 54.9424 76.797 61.1826C67.3916 67.4228 60.2663 76.5479 56.4928 87.1857C52.7193 97.8235 52.5015 109.399 55.8722 120.171C59.2429 130.943 66.0199 140.33 75.1839 146.92C84.348 153.509 95.4037 156.945 106.689 156.711C117.973 156.477 128.877 152.586 137.76 145.622C146.643 138.659 153.026 128.999 155.947 118.096L168.394 121.432Z" fill="#F8F8F8"/>
</svg>
