<svg width="170" height="170" viewBox="0 0 170 170" fill="none" xmlns="http://www.w3.org/2000/svg">
<path d="M117.5 28.7083C129.692 35.7474 139.269 46.5545 144.791 59.5045C150.313 72.4545 151.481 86.8472 148.12 100.518C144.759 114.189 137.051 126.4 126.153 135.313C115.256 144.226 101.76 149.361 87.6939 149.944C73.6278 150.528 59.7525 146.529 48.1547 138.548C36.5568 130.568 27.8633 119.038 23.3816 105.692C18.8999 92.3467 18.8723 77.9066 23.3028 64.5438C27.7333 51.181 36.3825 39.6178 47.9497 31.5932L55.2947 42.1808C46.0206 48.6146 39.0861 57.8854 35.5338 68.5991C31.9816 79.3128 32.0038 90.8902 35.5971 101.59C39.1903 112.29 46.1603 121.535 55.459 127.933C64.7577 134.331 75.8823 137.537 87.1598 137.069C98.4374 136.602 109.258 132.485 117.995 125.339C126.732 118.192 132.912 108.403 135.607 97.4419C138.302 86.481 137.365 74.9416 132.938 64.5588C128.511 54.1761 120.832 45.5114 111.057 39.8678L117.5 28.7083Z" fill="#F8F8F8"/>
<path d="M145.104 145.104C132.086 158.122 115.194 166.561 96.9675 169.153C78.741 171.745 60.1656 168.349 44.0348 159.477C27.9041 150.604 15.0899 136.735 7.51939 119.953C-0.0511044 103.172 -1.96866 84.3865 2.05509 66.4217C6.07885 48.457 15.8264 32.2841 29.8318 20.3354C43.8373 8.38674 61.3435 1.3081 79.7178 0.164043C98.0921 -0.980016 116.341 3.87235 131.721 13.9914C147.1 24.1105 158.779 38.9493 165 56.2761L159.965 58.0839C154.135 41.8475 143.192 27.9426 128.78 18.4604C114.369 8.97818 97.2681 4.43119 80.0502 5.50325C62.8323 6.57531 46.4279 13.2084 33.3039 24.4051C20.1799 35.6019 11.0458 50.7568 7.2753 67.591C3.50479 84.4251 5.30166 102.028 12.3957 117.754C19.4897 133.479 31.4974 146.476 46.613 154.79C61.7286 163.104 79.1349 166.286 96.2143 163.857C113.294 161.428 129.123 153.52 141.321 141.321L145.104 145.104Z" fill="#FECC00"/>
</svg>
