<svg width="178" height="178" viewBox="0 0 178 178" fill="none" xmlns="http://www.w3.org/2000/svg">
<path d="M149.104 28.8959C162.122 41.9137 170.561 58.806 173.153 77.0325C175.745 95.259 172.35 113.834 163.477 129.965C154.605 146.096 140.735 158.91 123.954 166.481C107.172 174.051 88.3869 175.969 70.4221 171.945C52.4573 167.921 36.2845 158.174 24.3358 144.168C12.3871 130.163 5.30847 112.657 4.16441 94.2822C3.02035 75.9079 7.87272 57.6588 17.9918 42.2794C28.1109 26.8999 42.9496 15.2214 60.2765 9.00029L62.1003 14.0797C45.8735 19.9059 31.9769 30.8428 22.5003 45.2458C13.0238 59.6488 8.47948 76.7392 9.5509 93.9468C10.6223 111.154 17.2515 127.549 28.4416 140.665C39.6316 153.782 54.7775 162.91 71.6017 166.678C88.4258 170.447 106.019 168.651 121.734 161.561C137.45 154.471 150.439 142.471 158.749 127.364C167.058 112.258 170.238 94.8616 167.81 77.7923C165.383 60.7231 157.479 44.9033 145.288 32.7121L149.104 28.8959Z" fill="#FECC00"/>
<path d="M26.215 72.1766C29.8587 58.5782 37.8188 46.5303 48.8984 37.8447C59.9779 29.1592 73.5778 24.3056 87.6529 24.0138C101.728 23.722 115.517 28.0078 126.947 36.2267C138.377 44.4456 146.83 56.1532 151.034 69.589C155.238 83.0248 154.967 97.4623 150.26 110.73C145.554 123.998 136.667 135.38 124.936 143.163C113.204 150.946 99.2636 154.71 85.2094 153.889C71.1553 153.068 57.7475 147.706 47.0025 138.61L55.3283 128.775C63.9431 136.068 74.6929 140.367 85.9609 141.025C97.229 141.684 108.406 138.666 117.812 132.426C127.217 126.185 134.342 117.06 138.116 106.422C141.889 95.7847 142.107 84.2093 138.736 73.4371C135.366 62.6649 128.589 53.2782 119.425 46.6886C110.261 40.0991 99.2048 36.6629 87.92 36.8969C76.6352 37.1308 65.7314 41.0222 56.8483 47.9859C47.9652 54.9496 41.5831 64.6091 38.6617 75.5117L26.215 72.1766Z" fill="#F8F8F8"/>
</svg>
