<svg width="80" height="80" viewBox="0 0 80 80" fill="none" xmlns="http://www.w3.org/2000/svg">
<circle cx="60.5" cy="59.5" r="15.5" fill="#FECC00"/>
<path d="M45.8457 7L45.9908 7.00729C46.7069 7.07893 47.2657 7.67508 47.2657 8.4C47.2657 9.12492 46.7069 9.72107 45.9908 9.79271L45.8457 9.8H9.84V74.2H60.6715L60.8167 74.2073C61.5326 74.2791 62.0915 74.8752 62.0915 75.6C62.0915 76.3248 61.5326 76.9209 60.8167 76.9927L60.6715 77H8.42C7.63576 77 7 76.3732 7 75.6V8.4L7.0074 8.2569C7.0801 7.55093 7.68476 7 8.42 7H45.8457ZM61.1929 44.3461V24.932C61.1931 24.159 61.8288 23.532 62.6129 23.532C63.397 23.5321 64.0328 24.159 64.0329 24.932V44.3461C64.0329 45.1193 63.3971 45.746 62.6129 45.7461C61.8287 45.7461 61.1929 45.1193 61.1929 44.3461Z" fill="#2B2A29"/>
<path d="M45.3016 7.10664C45.8322 6.88996 46.4431 7.00977 46.8492 7.41016L63.6165 23.9422C64.0225 24.3426 64.144 24.9449 63.9243 25.468C63.7045 25.991 63.1867 26.332 62.6125 26.332H45.8452C45.061 26.332 44.4252 25.7052 44.4252 24.932V8.4C44.4252 7.83382 44.7711 7.32338 45.3016 7.10664ZM47.2652 23.532H59.1845L47.2652 11.7797V23.532Z" fill="#2B2A29"/>
<path d="M75.16 59.9147C75.1598 52.0257 68.6725 45.6304 60.6706 45.6304C52.669 45.6306 46.1824 52.0258 46.1822 59.9147C46.1822 67.8039 52.6698 74.1998 60.6715 74.2C68.6735 74.2 75.16 67.804 75.16 59.9147ZM78 59.9147C78 69.3504 70.242 77 60.6715 77C51.1013 76.9998 43.3422 69.3503 43.3422 59.9147C43.3424 50.4794 51.1005 42.8306 60.6706 42.8304C70.241 42.8304 77.9998 50.4793 78 59.9147Z" fill="#2B2A29"/>
<path d="M65.9356 55.1646C66.4901 54.6179 67.389 54.6179 67.9435 55.1646C68.4981 55.7113 68.498 56.5975 67.9435 57.1443L59.2978 65.6691C58.7433 66.2159 57.8435 66.2159 57.2889 65.6691L52.4752 60.9232L52.3781 60.8165C51.9231 60.2667 51.9553 59.4552 52.4752 58.9426C52.9951 58.4301 53.8182 58.3983 54.3759 58.8469L54.4841 58.9426L58.2929 62.6978L65.9356 55.1646ZM28.8704 50.4988L29.0156 50.5061C29.7315 50.5779 30.2904 51.174 30.2904 51.8988C30.2903 52.6236 29.7315 53.2198 29.0156 53.2915L28.8704 53.2988H16.9049C16.1207 53.2988 15.485 52.6719 15.4849 51.8988C15.4849 51.1256 16.1207 50.4988 16.9049 50.4988H28.8704ZM38.8373 40.7389L38.9824 40.7462C39.6985 40.8177 40.2571 41.4141 40.2573 42.1389C40.2573 42.8639 39.6986 43.4601 38.9824 43.5316L38.8373 43.5389H16.9049C16.1207 43.5389 15.4849 42.9121 15.4849 42.1389C15.4851 41.3659 16.1208 40.7389 16.9049 40.7389H38.8373ZM38.8373 30.9799L38.9824 30.9872C39.6986 31.0588 40.2573 31.655 40.2573 32.38C40.2573 33.1049 39.6986 33.7011 38.9824 33.7727L38.8373 33.78H16.9049C16.1207 33.78 15.4849 33.1531 15.4849 32.38C15.4849 31.6068 16.1207 30.9799 16.9049 30.9799H38.8373Z" fill="#2B2A29"/>
</svg>
