<svg width="14" height="14" viewBox="0 0 14 14" fill="none" xmlns="http://www.w3.org/2000/svg">
<g clip-path="url(#clip0_0_1606)">
<path d="M12.4999 12.25C12.4999 12.7141 12.3154 13.1591 11.9872 13.4873C11.659 13.8155 11.2141 14 10.7499 14H8.49992C7.94764 14 7.49992 13.5523 7.49992 13V11H6.49992V13C6.49992 13.5523 6.05221 14 5.49992 14H3.24992C2.7858 14 2.34081 13.8155 2.01262 13.4873C1.68443 13.1591 1.49992 12.7141 1.49992 12.25V7.86425C1.11738 8.0859 0.620329 8.03446 0.292893 7.70703C-0.0976311 7.3165 -0.0976311 6.68349 0.292893 6.29296L6.29289 0.292963L6.36907 0.224604C6.76184 -0.0957465 7.34084 -0.0731527 7.70696 0.292963L13.707 6.29296L13.7753 6.36913C14.0957 6.76191 14.0731 7.34091 13.707 7.70703C13.3795 8.03446 12.8825 8.0859 12.4999 7.86425V12.25ZM9.49992 12H10.4999V5.91406L6.99992 2.41406L3.49992 5.91406V12H4.49992V10.75C4.49992 10.2859 4.68443 9.84088 5.01262 9.51269L5.14055 9.39648C5.452 9.14119 5.8437 8.99999 6.24992 8.99999H7.74992C8.15615 8.99999 8.54785 9.14119 8.8593 9.39648L8.98723 9.51269L9.10344 9.64062C9.35873 9.95207 9.49992 10.3438 9.49992 10.75V12Z" fill="#FECC00"/>
</g>
<defs>
<clipPath id="clip0_0_1606">
<rect width="14" height="14" fill="white"/>
</clipPath>
</defs>
</svg>
