<svg width="80" height="80" viewBox="0 0 80 80" fill="none" xmlns="http://www.w3.org/2000/svg">
<circle cx="50.5" cy="44.5" r="20.5" fill="#FECC00"/>
<path d="M50.5549 21.405C46.1234 21.405 41.7914 22.7191 38.1067 25.1812C34.422 27.6432 31.5501 31.1426 29.8543 35.2368C28.1584 39.331 27.7147 43.8361 28.5792 48.1825C29.4438 52.5289 31.5778 56.5213 34.7113 59.6549C37.8449 62.7885 41.8373 64.9225 46.1837 65.787C50.5301 66.6516 55.0352 66.2078 59.1294 64.512C63.2236 62.8161 66.723 59.9442 69.1851 56.2595C71.6471 52.5748 72.9612 48.2428 72.9612 43.8113C72.9546 37.8708 70.5918 32.1755 66.3912 27.975C62.1907 23.7744 56.4954 21.4116 50.5549 21.405ZM51.8049 63.655V59.48H49.3049V63.6538C44.475 63.3456 39.9229 61.2878 36.5006 57.8656C33.0784 54.4433 31.0206 49.8912 30.7124 45.0613H34.8849V42.5613H30.7124C31.0203 37.7311 33.078 33.1787 36.5002 29.7562C39.9225 26.3337 44.4748 24.2757 49.3049 23.9675V28.14H51.8049V23.9675C56.6351 24.2757 61.1874 26.3337 64.6096 29.7562C68.0319 33.1787 70.0896 37.7311 70.3974 42.5613H66.2237V45.0613H70.3974C70.0893 49.8912 68.0315 54.4433 64.6092 57.8656C61.187 61.2878 56.6349 63.3469 51.8049 63.655Z" fill="#2B2A29"/>
<path d="M67.3187 20.215L68.5787 18.39L70.6912 19.8488C70.9641 20.0371 71.3006 20.1093 71.6266 20.0495C71.9527 19.9897 72.2417 19.8029 72.43 19.53L75.0162 15.78C75.1097 15.6449 75.1755 15.4926 75.2101 15.332C75.2446 15.1714 75.2472 15.0055 75.2176 14.8439C75.188 14.6823 75.1268 14.5282 75.0376 14.3902C74.9483 14.2523 74.8328 14.1333 74.6975 14.04L68.415 9.70752C68.1421 9.51922 67.8057 9.44702 67.4796 9.5068C67.1535 9.56657 66.8645 9.75343 66.6762 10.0263L64.09 13.7763C63.9966 13.9114 63.9307 14.0636 63.8961 14.2243C63.8616 14.3849 63.859 14.5507 63.8887 14.7123C63.9183 14.8739 63.9794 15.0281 64.0687 15.1661C64.1579 15.304 64.2735 15.423 64.4087 15.5163L66.5212 16.9738L65.2212 18.8563C62.2303 17.0911 58.9443 15.8824 55.5225 15.2888V11.6113H59.8412C60.1728 11.6113 60.4907 11.4796 60.7251 11.2452C60.9595 11.0107 61.0912 10.6928 61.0912 10.3613V4.61127C61.0912 4.27975 60.9595 3.9618 60.7251 3.72738C60.4907 3.49296 60.1728 3.36127 59.8412 3.36127H41.27C40.9385 3.36127 40.6205 3.49296 40.3861 3.72738C40.1517 3.9618 40.02 4.27975 40.02 4.61127V10.3613C40.02 10.6928 40.1517 11.0107 40.3861 11.2452C40.6205 11.4796 40.9385 11.6113 41.27 11.6113H45.5887V15.2838C44.8454 15.4088 44.1125 15.5629 43.39 15.7463H9.37499C9.15339 15.7464 8.9358 15.8053 8.7445 15.9172C8.55321 16.0291 8.39509 16.1897 8.28634 16.3828C8.17759 16.5759 8.12212 16.7944 8.12562 17.016C8.12912 17.2376 8.19145 17.4542 8.30624 17.6438L12.9487 25.3113C13.0602 25.4953 13.2172 25.6474 13.4047 25.753C13.5921 25.8585 13.8036 25.9139 14.0187 25.9138H23.4825V23.4138H14.7225L11.5925 18.25H36.9675C30.9568 21.4592 26.2616 26.6742 23.6987 32.9875H3.86249V35.4875H22.8175C20.8903 41.9002 21.2466 48.7827 23.8257 54.9621C26.4048 61.1414 31.0471 66.2352 36.9612 69.375H17.0462L13.9212 64.2063H25.0275V61.7063H11.6975C11.4756 61.7057 11.2575 61.7642 11.0657 61.8758C10.8739 61.9874 10.7152 62.148 10.606 62.3412C10.4968 62.5344 10.441 62.7532 10.4444 62.9751C10.4477 63.1969 10.51 63.4139 10.625 63.6038L15.2687 71.2713C15.3799 71.4553 15.5367 71.6076 15.7239 71.7134C15.9111 71.8191 16.1225 71.8748 16.3375 71.875H43.39C49.9419 73.5515 56.8741 72.8813 62.9835 69.9807C69.093 67.0801 73.9942 62.1322 76.8366 55.9955C79.6791 49.8589 80.2835 42.9207 78.545 36.3849C76.8064 29.8492 72.8346 24.1283 67.3187 20.215ZM68.0237 12.4763L72.2487 15.3938L71.0825 17.0813L66.8575 14.1638L68.0237 12.4763ZM42.5237 5.86377H58.5912V9.11377H42.52L42.5237 5.86377ZM48.0925 11.6138H53.0262V14.9638C52.2125 14.8938 51.3912 14.8513 50.5587 14.8513C49.7262 14.8513 48.9062 14.8938 48.0925 14.9638V11.6138ZM50.5587 70.275C45.3249 70.275 40.2086 68.723 35.8568 65.8152C31.5051 62.9074 28.1133 58.7745 26.1105 53.939C24.1076 49.1035 23.5836 43.7827 24.6048 38.6495C25.626 33.5162 28.1464 28.8011 31.8474 25.1003C35.5483 21.3995 40.2636 18.8793 45.3969 17.8583C50.5302 16.8374 55.851 17.3616 60.6864 19.3647C65.5217 21.3678 69.6545 24.7598 72.5621 29.1117C75.4697 33.4636 77.0215 38.5799 77.0212 43.8138C77.0123 50.8296 74.2208 57.5555 69.2591 62.5157C64.2975 67.476 57.5708 70.2656 50.555 70.2725L50.5587 70.275Z" fill="#2B2A29"/>
<path d="M55.5275 43.8113C55.5277 42.8278 55.2363 41.8663 54.6901 41.0484C54.1439 40.2305 53.3673 39.5929 52.4588 39.2164C51.5502 38.8398 50.5503 38.7412 49.5857 38.9329C48.621 39.1246 47.7349 39.5981 47.0394 40.2935C46.3438 40.9889 45.8701 41.8749 45.6781 42.8395C45.4862 43.8041 45.5846 44.804 45.9609 45.7126C46.3372 46.6213 46.9745 47.398 47.7923 47.9444C48.61 48.4909 49.5715 48.7825 50.555 48.7825C51.6813 48.7776 52.7719 48.3867 53.645 47.675L61.2575 53.3563L62.7575 51.3563L55.1613 45.6875C55.4029 45.0915 55.5272 44.4544 55.5275 43.8113ZM50.555 46.2825C50.0659 46.2825 49.5878 46.1375 49.1812 45.8657C48.7746 45.594 48.4577 45.2078 48.2706 44.7559C48.0835 44.3041 48.0346 43.8069 48.1301 43.3272C48.2256 42.8476 48.4612 42.407 48.8071 42.0613C49.153 41.7155 49.5937 41.4801 50.0734 41.3849C50.5531 41.2896 51.0503 41.3388 51.5021 41.5261C51.9538 41.7134 52.3399 42.0305 52.6114 42.4373C52.8829 42.8441 53.0277 43.3222 53.0275 43.8113C53.0265 44.4666 52.7657 45.0948 52.3022 45.5581C51.8386 46.0213 51.2103 46.2819 50.555 46.2825ZM1.09375 42.5613H15.4688V45.0613H1.09375V42.5613ZM3.8625 52.1338H18.6825V54.6338H3.8625V52.1338Z" fill="#2B2A29"/>
</svg>
