<svg width="80" height="80" viewBox="0 0 80 80" fill="none" xmlns="http://www.w3.org/2000/svg">
<path d="M10.5 66.5H16.5L18 62.5L21.5 60.5H25.5L29.5 63.5L30.5 67H56L55.5 23L53.5 19.5H12.5L9.5 22V64.5L10.5 66.5Z" fill="#FECC00"/>
<path d="M79.7515 44.4284L71.0585 30.1224C70.906 29.8715 70.6915 29.6641 70.4357 29.5202C70.1798 29.3763 69.8912 29.3007 69.5976 29.3007H57.5759V23.3161C57.5759 20.5222 55.3024 18.2494 52.508 18.2494H49.9121C51.8655 14.7255 51.2332 10.1779 48.3537 7.30666C44.7609 3.72444 38.9152 3.72461 35.3226 7.30666C34.195 8.4311 33.2309 10.5161 32.4398 13.5299C31.6485 10.5159 30.6846 8.43093 29.5571 7.30666C25.9646 3.72444 20.1186 3.72461 16.526 7.30666C13.6465 10.1779 13.0144 14.7253 14.9677 18.2492H12.3716C9.57692 18.2492 7.30359 20.522 7.30359 23.3159V31.8511H6.0735C5.12957 31.8511 4.3641 32.6164 4.3641 33.5605C4.3641 34.5046 5.12957 35.2699 6.0735 35.2699H7.30342V38.5656H1.7094C0.76547 38.5656 0 39.3309 0 40.275C0 41.2191 0.76547 41.9844 1.7094 41.9844H7.30359V45.2802H5.73675C4.79282 45.2802 4.02735 46.0455 4.02735 46.9896C4.02735 47.9337 4.79282 48.699 5.73675 48.699H7.30359V63.6031C7.30359 66.3969 9.57709 68.6697 12.3716 68.6697H14.9957C15.7882 72.4983 19.187 75.3846 23.2479 75.3846C27.3085 75.3846 30.7074 72.4983 31.4998 68.6701L58.8284 68.6776C59.6236 72.5019 63.0205 75.3846 67.0785 75.3846C71.1366 75.3846 74.5335 72.5019 75.3289 68.6776H78.2906C79.2345 68.6776 80 67.9123 80 66.9682V45.3161C80 45.0031 79.914 44.6959 79.7515 44.4284ZM76.5812 46.6183H64.2932V39.4715H72.7388L76.5812 45.7947V46.6183ZM37.7362 9.72769C39.9978 7.47247 43.6778 7.47264 45.9397 9.72769C48.1559 11.9376 48.332 16.3629 45.4867 18.2494H34.9304C35.6877 13.8781 36.7074 10.7535 37.7362 9.72769ZM18.9397 17.893C16.7062 15.6658 16.706 11.9549 18.9397 9.72769C21.2014 7.47247 24.8817 7.47281 27.1431 9.72769C28.1718 10.7533 29.1915 13.8779 29.9489 18.2494H19.3927C19.1692 18.1012 19.0256 17.9788 18.9397 17.893ZM10.7224 63.6034V48.6991H18.1687C19.1126 48.6991 19.8781 47.9338 19.8781 46.9897C19.8781 46.0456 19.1126 45.2803 18.1687 45.2803H10.7224V41.9846H18.1687C19.1126 41.9846 19.8781 41.2193 19.8781 40.2752C19.8781 39.3311 19.1126 38.5658 18.1687 38.5658H10.7224V35.2701H18.1687C19.1126 35.2701 19.8781 34.5048 19.8781 33.5607C19.8781 32.6166 19.1126 31.8513 18.1687 31.8513H10.7224V23.3161C10.7224 22.4075 11.4622 21.6682 12.3716 21.6682H52.5079C53.4171 21.6682 54.1569 22.4075 54.1569 23.3161V65.2513H31.4998C30.7074 61.4231 27.3085 58.5368 23.2479 58.5368C19.1872 58.5368 15.7882 61.4231 14.9957 65.2513H12.3716C11.4622 65.2513 10.7224 64.512 10.7224 63.6034ZM23.2479 71.9658C20.4865 71.9658 18.2398 69.7205 18.2398 66.9607C18.2398 64.2009 20.4865 61.9556 23.2479 61.9556C26.0092 61.9556 28.2557 64.2009 28.2557 66.9607C28.2557 69.7205 26.0092 71.9658 23.2479 71.9658ZM67.0785 71.9658C64.319 71.9658 62.0738 69.7236 62.0708 66.9663L62.0706 66.9585C62.0718 64.1995 64.3176 61.9554 67.0785 61.9554C69.8393 61.9554 72.0853 64.1995 72.0865 66.9585L72.0863 66.9662C72.0832 69.7236 69.838 71.9658 67.0785 71.9658ZM75.3323 65.2588C74.5427 61.4268 71.1419 58.5368 67.0785 58.5368C63.015 58.5368 59.6144 61.4268 58.8248 65.2588H57.5757V32.7195H68.6359L70.6614 36.0528H62.5838C61.6398 36.0528 60.8744 36.8181 60.8744 37.7622V48.3279C60.8744 49.272 61.6398 50.0373 62.5838 50.0373H76.5812V65.2588H75.3323Z" fill="#2B2A29"/>
<path d="M79.7515 44.4263L71.0585 30.1193C70.906 29.8684 70.6915 29.661 70.4357 29.5171C70.1798 29.3732 69.8912 29.2976 69.5976 29.2976H57.5759V23.3126C57.5759 20.5186 55.3024 18.2456 52.508 18.2456H49.9121C51.8655 14.7214 51.2332 10.1737 48.3537 7.30221C44.7609 3.71982 38.9152 3.71999 35.3226 7.30221C34.195 8.42665 33.2309 10.5118 32.4398 13.526C31.6485 10.5118 30.6846 8.42665 29.5571 7.30221C25.9646 3.71982 20.1186 3.71999 16.526 7.30221C13.6465 10.1737 13.0144 14.7214 14.9677 18.2455H12.3716C9.57692 18.2455 7.30359 20.5184 7.30359 23.3125V31.8482H6.0735C5.12957 31.8482 4.3641 32.6135 4.3641 33.5578C4.3641 34.502 5.12957 35.2673 6.0735 35.2673H7.30342V38.5634H1.7094C0.76547 38.5634 0 39.3287 0 40.273C0 41.2173 0.76547 41.9826 1.7094 41.9826H7.30359V45.2785H5.73675C4.79282 45.2785 4.02735 46.0438 4.02735 46.988C4.02735 47.9323 4.79282 48.6976 5.73675 48.6976H7.30359V63.6027C7.30359 66.3967 9.57709 68.6697 12.3716 68.6697H14.9957C15.7882 72.4979 19.187 75.3846 23.2479 75.3846C27.3085 75.3846 30.7074 72.4979 31.4998 68.6696L58.8284 68.6771C59.6236 72.5017 63.0205 75.3846 67.0785 75.3846C71.1366 75.3846 74.5335 72.5017 75.3289 68.6771H78.2906C79.2345 68.6771 80 67.9118 80 66.9675V45.314C80 45.001 79.914 44.6938 79.7515 44.4263ZM76.5812 46.6164H64.2932V39.4692H72.7388L76.5812 45.7928V46.6164ZM37.7362 9.72341C39.9978 7.46802 43.6778 7.46819 45.9397 9.72341C48.1559 11.9335 48.332 16.3591 45.4867 18.2456H34.9304C35.6877 13.874 36.7074 10.7492 37.7362 9.72341ZM18.9397 9.72341C21.0221 7.30153 24.8817 7.46836 27.1431 9.72341C28.1718 10.7492 29.1915 13.8738 29.9489 18.2456H19.3927C19.1692 18.0974 14.9573 14.3549 18.9397 9.72341ZM10.7224 63.6026V48.6974H18.1687C19.1126 48.6974 19.8781 47.9321 19.8781 46.9879C19.8781 46.0436 19.1126 45.2783 18.1687 45.2783H10.7224V41.9824H18.1687C19.1126 41.9824 19.8781 41.2171 19.8781 40.2728C19.8781 39.3285 19.1126 38.5632 18.1687 38.5632H10.7224V35.2672H18.1687C19.1126 35.2672 19.8781 34.5019 19.8781 33.5576C19.8781 32.6133 19.1126 31.848 18.1687 31.848H10.7224V23.3123C10.7224 22.4036 11.4622 21.6643 12.3716 21.6643H52.5079C53.4171 21.6643 54.1569 22.4036 54.1569 23.3123V65.2502H31.4998C30.7074 61.4219 27.3085 58.5354 23.2479 58.5354C19.1872 58.5354 15.7882 61.4219 14.9957 65.2502H12.3716C11.4622 65.2506 10.7224 64.5113 10.7224 63.6026ZM23.2479 71.9656C20.4865 71.9656 18.2398 69.7202 18.2398 66.9602C18.2398 64.2002 20.4865 61.9547 23.2479 61.9547C26.0092 61.9547 28.2557 64.2002 28.2557 66.9602C28.2557 69.7202 26.0092 71.9656 23.2479 71.9656ZM67.0785 71.9656C64.319 71.9656 62.0738 69.7232 62.0708 66.9658L62.0706 66.9579C62.0718 64.1988 64.3176 61.9545 67.0785 61.9545C69.8393 61.9545 72.0853 64.1988 72.0865 66.9579L72.0863 66.9656C72.0832 69.7232 69.838 71.9656 67.0785 71.9656ZM75.3323 65.2581C74.5427 61.426 71.1419 58.5357 67.0785 58.5357C63.015 58.5357 59.6144 61.426 58.8248 65.2581H57.5757V32.7166H68.6359L70.6614 36.0501H62.5838C61.6398 36.0501 60.8744 36.8154 60.8744 37.7596V48.326C60.8744 49.2701 61.6398 50.0355 62.5838 50.0355H76.5812V65.2581H75.3323Z" fill="#2B2A29"/>
<path d="M67.0786 64.4427C65.6897 64.4427 64.5596 65.5723 64.5596 66.9607C64.5596 68.3491 65.6897 69.4787 67.0786 69.4787C68.4675 69.4787 69.5975 68.3491 69.5975 66.9607C69.5975 65.5723 68.4676 64.4427 67.0786 64.4427ZM23.248 64.4427C21.8591 64.4427 20.729 65.5723 20.729 66.9607C20.729 68.3491 21.8591 69.4787 23.248 69.4787C24.6369 69.4787 25.767 68.3491 25.767 66.9607C25.767 65.5723 24.6369 64.4427 23.248 64.4427Z" fill="#2B2A29"/>
</svg>
