<svg width="80" height="80" viewBox="0 0 80 80" fill="none" xmlns="http://www.w3.org/2000/svg">
<path d="M18 61.5L21.5 62L24 68.5L41 64.5L40.5 62L39.5 57.5L41 56L43.5 53.5V49.5L41.5 42L40 34.5L37.5 31.5H35L32.5 31C31.8333 29.1667 30.5 25.4 30.5 25C30.5 24.6 29.8333 22.8333 29.5 22H26.5C25.8333 21.6667 24.4 20.9 24 20.5C23.6 20.1 21.5 19 20.5 18.5L18 20.5L16.5 24L13.5 25.5L13 31L11.5 28.5L9 29L7.5 31L10.5 43.5L14 56.5L18 61.5Z" fill="#FECC00"/>
<path d="M74.8393 34.2769C73.525 34.0359 72.316 33.4077 71.372 32.4754C70.4253 31.5453 69.7869 30.3545 69.5412 29.06C69.48 28.7388 69.3066 28.4488 69.0512 28.2402C68.7958 28.0315 68.4744 27.9173 68.1426 27.9173C67.8107 27.9173 67.4893 28.0315 67.2339 28.2402C66.9785 28.4488 66.8052 28.7388 66.7439 29.06C66.4981 30.354 65.8605 31.5444 64.9148 32.4749C63.9634 33.4107 62.7645 34.0337 61.4471 34.2768C61.1208 34.337 60.8262 34.5076 60.6141 34.7591C60.4021 35.0106 60.2859 35.3271 60.2859 35.654C60.2858 35.9809 60.4017 36.2975 60.6137 36.5491C60.8256 36.8007 61.1201 36.9715 61.4464 37.0318C64.1554 37.533 66.2348 39.5811 66.7438 42.2496C66.805 42.5708 66.9783 42.8608 67.2336 43.0695C67.489 43.2782 67.8104 43.3925 68.1423 43.3925H68.1426C68.4744 43.3925 68.7957 43.2784 69.0511 43.0698C69.3065 42.8612 69.4799 42.5713 69.5412 42.2502C69.7867 40.9551 70.4251 39.7638 71.3722 38.8333C72.3162 37.9012 73.5252 37.2732 74.8394 37.0321C75.1657 36.9717 75.4602 36.801 75.6721 36.5495C75.884 36.2979 76 35.9813 76 35.6545C76 35.3276 75.884 35.011 75.672 34.7595C75.4601 34.5079 75.1655 34.3372 74.8393 34.2769ZM69.3594 36.8514C68.9066 37.2967 68.5007 37.786 68.1478 38.3117C67.442 37.251 66.522 36.3449 65.4451 35.6497C66.5174 34.9515 67.435 34.0468 68.1426 32.99C68.4968 33.5184 68.9044 34.0101 69.3593 34.4576C69.8131 34.9052 70.3119 35.3062 70.8479 35.6545C70.312 36.0029 69.8132 36.4039 69.3594 36.8514ZM67.0431 15.018C66.0666 14.8389 65.1682 14.3725 64.4663 13.6804C63.7634 12.9892 63.2898 12.1045 63.108 11.1429C62.9815 10.4802 62.3938 10.0001 61.7092 10.0001C61.0246 10.0001 60.437 10.4804 60.3104 11.1429C60.1283 12.1043 59.6545 12.9888 58.9515 13.6797C58.2491 14.3719 57.3504 14.8385 56.3736 15.0181C56.0477 15.0788 55.7535 15.2496 55.5418 15.5011C55.3302 15.7526 55.2144 16.069 55.2144 16.3956C55.2144 16.7222 55.3303 17.0386 55.5419 17.2901C55.7536 17.5416 56.0478 17.7124 56.3737 17.773C58.3868 18.1455 59.9321 19.6674 60.3104 21.6498C60.3717 21.9709 60.545 22.2609 60.8004 22.4695C61.0558 22.6782 61.3772 22.7924 61.7091 22.7924H61.7092C62.3938 22.7924 62.9813 22.3124 63.108 21.6499C63.2903 20.6883 63.7639 19.8036 64.4663 19.112C65.168 18.4193 66.0665 17.9524 67.0431 17.773C67.3692 17.7124 67.6634 17.5417 67.8752 17.2901C68.0869 17.0386 68.2028 16.7222 68.2028 16.3955C68.2028 16.0688 68.0869 15.7524 67.8752 15.5008C67.6634 15.2493 67.3692 15.0785 67.0431 15.018ZM62.4527 17.1306C62.1861 17.3933 61.9393 17.6746 61.714 17.9724C61.2611 17.3699 60.7198 16.8369 60.1079 16.3908C60.4105 16.1687 60.6966 15.9253 60.9638 15.6627C61.2325 15.3979 61.4815 15.1142 61.7086 14.814C62.1631 15.4156 62.7044 15.9486 63.3153 16.3961C63.01 16.6199 62.7217 16.8654 62.4527 17.1306ZM64.187 48.6488H49.6203C50.2674 47.8494 50.7389 46.9264 51.0048 45.9382H57.7195C58.5055 45.9382 59.1428 45.3106 59.1428 44.5366C59.1428 43.7626 58.5055 43.1351 57.7195 43.1351H51.2537V17.4019C51.2537 13.3205 47.8819 10 43.7371 10H11.515C7.37122 10 4 13.3205 4 17.4019V44.0501C4 47.9875 7.13807 51.2159 11.0802 51.4386L12.6074 57.3766C13.457 60.6841 16.4675 62.9939 19.9281 62.9939C20.0771 62.9939 20.226 62.9895 20.3748 62.9808L21.9073 68.9426C22.0001 69.3028 22.2343 69.6121 22.5585 69.8024C22.8827 69.9926 23.2704 70.0483 23.6363 69.9572L41.4746 65.5101C42.2366 65.3202 42.6979 64.5579 42.5051 63.8076L40.917 57.6268C43.1995 56.2916 44.7198 54.0272 45.0779 51.4517H64.187C64.973 51.4517 65.6103 50.8242 65.6103 50.0502C65.6103 49.2762 64.973 48.6488 64.187 48.6488ZM6.84655 44.0501V34.97L9.81924 46.5357L10.3235 48.4964C8.32467 47.9762 6.84655 46.1801 6.84655 44.0501ZM38.8461 55.5325C38.1206 55.7467 37.6878 56.4865 37.8754 57.2169L39.3965 63.1368L24.3176 66.896L22.818 61.062C22.7253 60.7016 22.4911 60.3923 22.1669 60.2019C21.8425 60.0117 21.4547 59.9561 21.0887 60.0473C20.7094 60.1421 20.3196 60.1902 19.9283 60.1907C17.7723 60.1907 15.897 58.7507 15.3671 56.6888L12.579 45.8476L9.00459 31.9408C8.95159 31.7348 8.94035 31.5207 8.97152 31.3105C9.00269 31.1003 9.07565 30.8982 9.18624 30.7158C9.29683 30.5334 9.44286 30.3743 9.61598 30.2476C9.7891 30.1208 9.98591 30.029 10.1951 29.9772C10.4041 29.9245 10.6217 29.9131 10.8352 29.9437C11.0487 29.9743 11.2539 30.0464 11.439 30.1556C11.6246 30.2639 11.7866 30.4073 11.9156 30.5776C12.0446 30.7479 12.1379 30.9417 12.1903 31.1478L12.1906 31.1489L12.3367 31.7196V31.7197L12.337 31.7208L14.9759 41.9803C15.1391 42.6152 15.7185 43.038 16.3545 43.038C16.4703 43.038 16.588 43.024 16.7051 42.9948C17.4672 42.8048 17.9284 42.0423 17.7355 41.292L15.0966 31.0326L15.0965 31.0319L14.9504 30.4615L14.9503 30.4608L14.1599 27.386C14.107 27.18 14.0957 26.9657 14.1269 26.7554C14.158 26.5451 14.231 26.3429 14.3415 26.1604C14.452 25.9778 14.598 25.8185 14.771 25.6915C14.9441 25.5645 15.1408 25.4724 15.3501 25.4203C16.229 25.2018 17.1249 25.727 17.3472 26.592L20.9225 40.497C21.0858 41.1319 21.6651 41.5549 22.3013 41.5549C22.4169 41.5549 22.5345 41.5409 22.6516 41.5117C23.4137 41.3218 23.8751 40.5593 23.6821 39.809L20.1069 25.9037L20.1064 25.9025L19.0536 21.8075C19.02 21.6765 19.0031 21.5419 19.0032 21.4069C19.0032 20.6674 19.5137 20.023 20.2437 19.8405C20.6684 19.7346 21.1104 19.798 21.4874 20.0193C21.8644 20.2406 22.1315 20.5934 22.2392 21.0121L25.8144 34.9172L25.8149 34.9188L26.8677 39.0153C27.0309 39.6503 27.6104 40.0733 28.2464 40.0733C28.3622 40.0733 28.4796 40.0593 28.5967 40.0301C29.3588 39.8402 29.8203 39.0779 29.6274 38.3276L28.5744 34.2304L28.5741 34.2291L28.2348 32.9093L26.0534 24.4228C26.0198 24.2918 26.0029 24.1572 26.003 24.0221C26.003 23.2819 26.5129 22.6377 27.2435 22.4557C27.4525 22.403 27.67 22.3916 27.8836 22.4222C28.0971 22.4528 28.3023 22.5248 28.4873 22.6341C28.6731 22.7425 28.8352 22.8861 28.9642 23.0566C29.0932 23.2272 29.1866 23.4212 29.239 23.6275L32.1939 35.1162L32.8142 37.532L32.8144 37.5326L34.7899 45.2159C34.9532 45.8509 35.5325 46.2737 36.1686 46.2737C36.2843 46.2737 36.4019 46.2597 36.519 46.2305C37.2811 46.0406 37.7425 45.2782 37.5495 44.5279L35.5743 36.8454L35.5742 36.8449L34.9536 34.428C34.9 34.2222 34.8884 34.0079 34.9195 33.7977C34.9506 33.5874 35.0238 33.3854 35.1347 33.2031C35.2448 33.02 35.3908 32.8602 35.5641 32.7331C35.7374 32.606 35.9347 32.5141 36.1444 32.4627L36.2218 32.4433C36.4308 32.3905 36.6483 32.3792 36.8618 32.4098C37.0753 32.4404 37.2805 32.5124 37.4656 32.6217C37.6514 32.73 37.8135 32.8736 37.9426 33.0441C38.0716 33.2146 38.1649 33.4087 38.2172 33.615L42.1341 48.8451C42.239 49.253 42.2986 49.6709 42.312 50.0915C42.3836 52.4459 41.0254 54.5716 38.8461 55.5325ZM48.407 44.0501C48.407 46.1662 46.9474 47.9521 44.9678 48.4854C44.9444 48.3764 44.9213 48.267 44.8936 48.1588L40.9766 32.9281C40.6824 31.783 39.953 30.8193 38.9225 30.2147C37.8925 29.6103 36.6848 29.4368 35.5214 29.7272L35.4444 29.7465C34.8989 29.8819 34.3842 30.1171 33.927 30.4399L31.9982 22.9407C31.704 21.7956 30.9746 20.8319 29.9442 20.2273C28.914 19.6227 27.7062 19.4495 26.5443 19.7393C25.9987 19.8751 25.4837 20.1106 25.0262 20.4334L24.9984 20.3251C24.7041 19.1807 23.9748 18.2174 22.9446 17.6125C21.9143 17.0076 20.7065 16.8345 19.5434 17.1242C17.549 17.6232 16.1563 19.3846 16.1563 21.4078C16.1563 21.7747 16.2025 22.1407 16.2938 22.496L16.3219 22.6057C15.7633 22.5345 15.1961 22.5678 14.65 22.704C12.6559 23.2027 11.2633 24.9648 11.2633 26.9884C11.2633 27.0498 11.2664 27.111 11.2692 27.1722C10.6783 27.0845 10.0755 27.1143 9.4965 27.2599C8.40898 27.5299 7.46364 28.1914 6.84683 29.1138V17.4019C6.84683 14.8662 8.94103 12.8031 11.5152 12.8031H43.7372C46.3121 12.8031 48.4071 14.866 48.4071 17.4019V44.0501H48.407ZM68.1428 48.7411C66.3112 48.7411 66.3082 51.5443 68.1428 51.5443C69.9745 51.5443 69.9774 48.7411 68.1428 48.7411Z" fill="#2B2A29"/>
</svg>
