<svg width="40" height="40" viewBox="0 0 40 40" fill="none" xmlns="http://www.w3.org/2000/svg">
<g clip-path="url(#clip0_0_3082)">
<path d="M4.79999 16H28V26L25.4999 28.5L22.4 31.2H4.79999V16Z" fill="white"/>
<path d="M5.19999 16.4H9.19999V10.4L24 10.8L24.4 16.4H28V6.83873V6.00002L22.4 5.60002H4.79999L5.19999 16.4Z" fill="white"/>
<path d="M28.3334 0H5.00001C2.69994 0.00273437 0.836108 1.86664 0.833374 4.16664V35.8333C0.836108 38.1334 2.69994 39.9973 5.00001 40H28.3334C30.6335 39.9973 32.4973 38.1334 32.5 35.8334V4.16664C32.4973 1.86664 30.6334 0.00273437 28.3334 0ZM30.8334 35.8334C30.8334 37.2141 29.7141 38.3334 28.3334 38.3334H5.00001C3.61931 38.3334 2.50001 37.2141 2.50001 35.8334V4.16664C2.50001 2.78594 3.61931 1.66664 5.00001 1.66664H28.3334C29.7141 1.66664 30.8334 2.78594 30.8334 4.16664V35.8334Z" fill="#2B2A29"/>
<path d="M1.66656 5H31.6666V6.66664H1.66656V5ZM1.66656 33.3334H31.6666V35H1.66656V33.3334Z" fill="#2B2A29"/>
<path d="M27.4999 5.83337V24.655L22.1549 30H5.83328V5.83337H4.16656V30C4.16656 30.9205 4.91274 31.6667 5.83321 31.6667H22.4999C22.7209 31.6666 22.9328 31.5788 23.0891 31.4225L28.9224 25.5892C29.0788 25.4329 29.1666 25.221 29.1666 25V5.83337H27.4999Z" fill="#2B2A29"/>
<path d="M23.3334 24.1666C22.4129 24.1666 21.6667 24.9128 21.6667 25.8333V30.8333H23.3334V25.8333H28.3334V24.1666H23.3334ZM35 31.6666H38.3334V33.3333H35V31.6666Z" fill="#2B2A29"/>
<path d="M39.0266 4.5375L37.3599 2.0375C37.3103 1.9712 37.2515 1.91235 37.1852 1.86273C36.8023 1.57632 36.2597 1.65453 35.9733 2.0375L34.3066 4.5375C34.2156 4.67458 34.1669 4.83543 34.1666 5V36.6666C34.1666 37.1269 34.5398 37.5 35 37.5H38.3333C38.7936 37.5 39.1667 37.1269 39.1667 36.6666V5C39.1664 4.83542 39.1176 4.67458 39.0266 4.5375ZM37.4999 35.8334H35.8333V5.25L36.6666 4L37.4999 5.25V35.8334ZM24.1666 10H9.16655C8.70632 10 8.33319 10.3731 8.33319 10.8334V15.8334C8.33319 16.2936 8.70632 16.6667 9.16655 16.6667H24.1666C24.6268 16.6667 24.9999 16.2936 24.9999 15.8334V10.8334C24.9999 10.3731 24.6268 10 24.1666 10ZM23.3333 15H9.99991V11.6666H23.3333V15ZM8.33327 18.3334H9.99991V20H8.33327V18.3334ZM11.6665 18.3334H13.3332V20H11.6665V18.3334ZM14.9999 18.3334H24.9999V20H14.9999V18.3334ZM8.33327 21.6666H19.1666V23.3333H8.33327V21.6666ZM8.33327 25H15.8333V26.6666H8.33327V25Z" fill="#2B2A29"/>
</g>
<defs>
<clipPath id="clip0_0_3082">
<rect width="40" height="40" fill="white"/>
</clipPath>
</defs>
</svg>
