<svg width="80" height="80" viewBox="0 0 80 80" fill="none" xmlns="http://www.w3.org/2000/svg">
<circle cx="39.5" cy="36.5" r="17.5" fill="#FECC00"/>
<path d="M72.8291 60.5394C69.5191 65.1373 64.2586 65.5737 61.0475 65.6752C59.9513 68.7618 57.9055 73.6881 52.5411 75.4514C51.4307 75.815 50.2683 76 49.0866 76C45.2079 76 42.226 74.0805 39.9994 72.5411C37.7785 74.0754 34.7952 76 30.9143 76C29.7312 76 28.5681 75.8157 27.459 75.4514C22.0897 73.6866 20.046 68.7546 18.9526 65.6752C15.7458 65.5729 10.4818 65.1388 7.17181 60.5409C3.6397 55.6297 5.27336 50.0368 6.15104 47.0329L6.3169 46.4619C6.45805 46.0156 6.76568 45.6425 7.17445 45.4219C7.58321 45.2012 8.06091 45.1505 8.50607 45.2804C8.95123 45.4103 9.32879 45.7106 9.55854 46.1176C9.7883 46.5245 9.85215 47.0061 9.73654 47.4599L9.56286 48.0575C8.76205 50.7978 7.5498 54.9479 10.0497 58.4226C12.5611 61.9117 16.8556 62.0226 19.6965 62.0946L20.2688 62.1105C20.6286 62.12 20.9771 62.2397 21.2682 62.4538C21.5594 62.6678 21.7795 62.9661 21.8996 63.3093L22.0811 63.8298C23.0293 66.5579 24.4636 70.6828 28.5574 72.0278C29.3112 72.2754 30.1028 72.4 30.9121 72.4C33.9182 72.4 36.2857 70.7533 38.3757 69.3011L39.0028 68.8684C39.2983 68.666 39.647 68.5582 40.0038 68.5588C40.3607 68.5594 40.709 68.6686 41.0038 68.872L41.6252 69.3026C43.7123 70.7533 46.0806 72.4 49.0866 72.4C49.8967 72.4 50.689 72.2754 51.4428 72.027C55.5351 70.6821 56.9687 66.5572 57.9176 63.8277L58.102 63.3021C58.2231 62.9607 58.4433 62.6642 58.7338 62.4516C59.0243 62.239 59.3715 62.1201 59.7299 62.1105L60.2916 62.0946C63.1446 62.0226 67.4391 61.9117 69.9519 58.419C72.4504 54.9479 71.2374 50.8014 70.4366 48.0575L70.3135 47.6341C70.0373 46.6794 70.5548 45.5972 71.4965 45.3171C72.4468 45.0327 73.4042 45.5015 73.6811 46.454L73.7295 46.6225L73.8463 47.0236C74.7268 50.0411 76.3605 55.6319 72.8291 60.5394ZM6.53543 36.4035C6.53543 33.7892 8.84604 32.0065 10.8833 30.4347C12.0073 29.5671 13.4053 28.4878 13.6452 27.7412C13.9093 26.919 13.4153 25.227 12.9789 23.7337C12.2671 21.2994 11.462 18.5417 12.9277 16.5034C14.4076 14.4478 17.267 14.3737 19.789 14.3089C21.239 14.2721 23.045 14.2253 23.7155 13.7307C24.3697 13.2497 24.9626 11.5441 25.4396 10.1739C26.2824 7.74821 27.2384 4.99852 29.6572 4.20364C31.9977 3.43612 34.215 4.9798 36.3633 6.47309C37.651 7.36805 39.111 8.38181 40.0015 8.38181C40.892 8.38181 42.3513 7.36733 43.6383 6.47309C45.788 4.98052 48.0139 3.43612 50.3444 4.20364C52.7654 4.9978 53.7207 7.74821 54.5635 10.1746C55.0397 11.5448 55.6319 13.2505 56.2875 13.7314C56.9581 14.2253 58.7618 14.2721 60.2111 14.3096C62.736 14.3737 65.5962 14.4478 67.0753 16.5041C68.5417 18.5425 67.7359 21.3015 67.0234 23.7351C66.587 25.2284 66.0923 26.9197 66.3564 27.7419C66.5963 28.4878 67.995 29.5671 69.1197 30.4347C71.1584 32.0079 73.4676 33.7899 73.4676 36.4035C73.4676 39.0179 71.1584 40.8006 69.1197 42.3723C67.9957 43.2407 66.5963 44.3199 66.3564 45.0651C66.0923 45.8874 66.5877 47.5801 67.0234 49.0727C67.7359 51.507 68.5424 54.2646 67.0753 56.3036C65.5947 58.36 62.7346 58.432 60.2111 58.4975C58.7604 58.5342 56.9566 58.5817 56.284 59.0757C55.6305 59.5573 55.0383 61.2623 54.562 62.6332C53.7192 65.0589 52.7654 67.8093 50.3444 68.6041C48.016 69.376 45.788 67.8287 43.6383 66.3347C42.3506 65.4397 40.892 64.426 40.0015 64.426C39.1103 64.426 37.6503 65.4405 36.3626 66.3347C34.6087 67.5544 32.8049 68.8079 30.9306 68.8079C30.4985 68.8078 30.069 68.739 29.6579 68.6041C27.2384 67.81 26.2824 65.0589 25.4396 62.6317C24.9633 61.2623 24.3711 59.5573 23.7176 59.0757C23.0457 58.5817 21.2412 58.5342 19.7912 58.4975C17.2677 58.4327 14.4083 58.3607 12.9277 56.3036C11.4613 54.2646 12.2671 51.507 12.9789 49.0727C13.416 47.5801 13.91 45.8881 13.6459 45.0651C13.406 44.3178 12.0073 43.2392 10.884 42.3723C8.84462 40.7991 6.53543 39.0171 6.53543 36.4035ZM10.0939 36.4035C10.0939 37.2359 11.798 38.5506 13.0409 39.5103C14.7151 40.802 16.447 42.1391 17.03 43.9549C17.635 45.8391 17.0022 48.0028 16.3908 50.0944C15.985 51.4832 15.3707 53.5835 15.8042 54.1847C16.2505 54.8068 18.349 54.8615 19.8802 54.9004C22.0256 54.9551 24.243 55.0127 25.8104 56.1661C27.3608 57.3066 28.0904 59.4076 28.7959 61.4394C29.3084 62.9161 30.0102 64.9372 30.7562 65.1813C31.4339 65.4095 33.1829 64.1797 34.3467 63.369C36.1455 62.1191 38.0055 60.8274 40.0015 60.8274C41.9961 60.8274 43.8561 62.1191 45.6542 63.369C46.8166 64.1761 48.5684 65.3973 49.2461 65.1813C49.9899 64.9372 50.6918 62.9154 51.2043 61.4409C51.9119 59.409 52.6415 57.3066 54.1898 56.1661C55.7586 55.0134 57.976 54.9551 60.1207 54.9004C61.6519 54.8615 63.7511 54.8075 64.1974 54.1847C64.6302 53.5835 64.0166 51.4832 63.6101 50.0944C62.9987 48.0028 62.3659 45.8391 62.9709 43.9549C63.5546 42.1391 65.2858 40.8035 66.9607 39.5118C68.2029 38.5513 69.9077 37.2373 69.9077 36.4043C69.9077 35.5719 68.205 34.2572 66.9607 33.2975C65.2858 32.0058 63.5546 30.6687 62.9709 28.8543C62.368 26.9701 62.9987 24.8072 63.6101 22.7156C64.0166 21.3253 64.6302 19.2257 64.1974 18.6231C63.7511 18.0017 61.6533 17.9485 60.1207 17.9089C57.9767 17.8541 55.7593 17.7973 54.1919 16.6431C52.6437 15.5026 51.9119 13.4009 51.2065 11.3698C50.6939 9.89453 49.9921 7.87277 49.2461 7.62869C48.5698 7.40549 46.8166 8.63237 45.6542 9.44093C43.8554 10.6909 41.9961 11.9825 40.0015 11.9825C38.0055 11.9825 36.1462 10.6909 34.3489 9.44093C33.1836 8.63165 31.4254 7.40837 30.757 7.62869C30.0124 7.87277 29.3105 9.89309 28.798 11.3691C28.0919 13.4009 27.3608 15.5012 25.8119 16.6424C24.2444 17.7965 22.0263 17.8534 19.8809 17.9089C18.3497 17.9485 16.2534 18.0017 15.807 18.6224C15.3735 19.2243 15.9871 21.3245 16.3936 22.7134C17.0044 24.8058 17.6372 26.9694 17.0321 28.8536C16.4491 30.6694 14.7172 32.005 13.0437 33.2967C11.798 34.255 10.0939 35.5698 10.0939 36.4035ZM21.5829 36.4035C21.5829 26.132 29.8451 17.7749 40.0001 17.7749C50.1551 17.7749 58.4166 26.132 58.4166 36.4035C58.4166 46.6751 50.1558 55.0307 40.0001 55.0307C29.8444 55.0307 21.5829 46.6751 21.5829 36.4035ZM25.142 36.4035C25.142 44.6893 31.8069 51.4314 40.0001 51.4314C48.1919 51.4314 54.8575 44.6893 54.8575 36.4035C54.8575 28.1163 48.1919 21.375 40.0001 21.375C31.8069 21.3742 25.142 28.1156 25.142 36.4035ZM35.4429 44.6101C35.7846 44.9298 36.2181 45.0882 36.6509 45.0882C37.1186 45.0882 37.5841 44.9039 37.9336 44.5359L48.846 33.062C49.0081 32.8917 49.1354 32.6907 49.2206 32.4706C49.3059 32.2505 49.3475 32.0156 49.343 31.7793C49.3385 31.5429 49.288 31.3098 49.1944 31.0932C49.1009 30.8766 48.966 30.6807 48.7976 30.5168C48.6292 30.3529 48.4305 30.2241 48.213 30.1379C47.9954 30.0517 47.7631 30.0096 47.5294 30.0142C47.2958 30.0187 47.0653 30.0698 46.8511 30.1644C46.637 30.259 46.4433 30.3954 46.2813 30.5658L36.579 40.7682L32.1336 36.6116C31.7852 36.2995 31.3298 36.1379 30.8649 36.1614C30.4001 36.1849 29.9628 36.3917 29.6469 36.7374C29.331 37.0831 29.1616 37.5402 29.175 38.0108C29.1883 38.4814 29.3834 38.9279 29.7184 39.2547L35.4429 44.6101Z" fill="#2B2A29"/>
</svg>
