<svg width="40" height="30" viewBox="0 0 40 30" fill="none" xmlns="http://www.w3.org/2000/svg">
<path d="M1.29957 2.5293L7.51797 0.0278981L16.5928 3.67825L14.0989 4.6814L14.0992 4.68226L14.0018 4.7205L8.81063 6.80868L10.8581 12.0546L12.2846 9.24603L13.0057 7.82602H13.0058L13.7364 7.53212L15.0532 7.00241L19.9549 5.03071L23.9114 6.6222L24.8239 4.28442L25.3852 2.84626L26.1701 2.53056L32.3919 0.027832L38.6103 2.52924L39.9595 3.07195L39.3986 4.51012L28.9853 30.0584L19.955 13.4722L13.2501 26.644L22.5993 22.8829L23.6257 24.7681L11.7792 29.5336L10.4745 30.0584L9.91338 28.6195L0.511257 4.51012L-0.0496216 3.07195L1.29957 2.5293ZM11.1735 26.1442L18.502 11.747L14.2192 10.0243L10.6121 17.1266L6.65184 6.98023L5.6828 6.59051L3.1507 5.57191L11.1735 26.1442ZM26.1734 7.53199L26.9042 7.82602L27.6253 9.24603L29.0517 12.0546L31.0993 6.80861L26.7476 5.05825L25.8352 7.39596L26.1734 7.53199ZM29.0623 3.66518L32.4665 5.0006L35.7539 3.67825L32.3919 2.3258L29.0623 3.66518ZM25.6907 10.0242L21.4078 11.747L28.7364 24.9901L36.7592 5.57191L33.258 6.98023L29.2976 17.1265L25.6907 10.0242ZM19.9548 10.0335L23.3169 8.681L19.9549 7.32868L16.5929 8.68107L19.9548 10.0335ZM7.44332 5.0006L10.8476 3.66518L7.51797 2.32586L4.15586 3.67825L7.44332 5.0006Z" fill="#FECC00"/>
</svg>
