<svg width="602" height="436" viewBox="0 0 602 436" fill="none" xmlns="http://www.w3.org/2000/svg">
<path d="M20.3007 36.3178L113.866 0.000958704L250.411 52.9988L212.887 67.5631L212.892 67.5756L211.426 68.1307L133.316 98.448L164.125 174.612L185.588 133.835L196.438 113.218H196.439L207.433 108.951L227.245 101.261L301 72.6346L360.531 95.7407L374.262 61.7995L382.708 40.9194L394.517 36.336L488.134 0L581.699 36.3168L602 44.1962L593.561 65.0763L436.876 436L301.001 195.193L200.116 386.428L340.789 331.822L356.233 359.192L177.984 428.38L158.352 436L149.909 415.109L8.43931 65.0763L0 44.1962L20.3007 36.3178ZM168.869 379.171L279.139 170.146L214.697 145.134L160.423 248.25L100.834 100.939L86.2534 95.2806L48.1539 80.4919L168.869 379.171ZM394.566 108.949L405.563 113.218L416.413 133.835L437.875 174.611L468.684 98.4471L403.207 73.0343L389.477 106.975L394.566 108.949ZM438.035 52.809L489.257 72.1974L538.721 52.9988L488.134 33.3631L438.035 52.809ZM387.303 145.133L322.861 170.146L433.131 362.415L553.846 80.4919L501.166 100.939L441.576 248.248L387.303 145.133ZM300.999 145.267L351.587 125.631L301 105.998L250.412 125.632L300.999 145.267ZM112.743 72.1974L163.965 52.809L113.866 33.3641L63.2781 52.9988L112.743 72.1974Z" fill="#FCCA03"/>
</svg>
