<svg width="128" height="90" viewBox="0 0 128 90" fill="none" xmlns="http://www.w3.org/2000/svg">
<path d="M21.924 5.48023L35.9154 0.0605183L56.3338 7.96962L50.7225 10.1431L50.7232 10.145L50.5041 10.2278L38.8239 14.7522L43.4308 26.1184L46.6403 20.0331L48.2629 16.9565H48.263L49.907 16.3197L52.8696 15.172L63.8985 10.8999L72.8006 14.3482L74.8538 9.28299L76.1168 6.16696L77.8826 5.48295L91.8817 0.0603752L105.873 5.48009L108.909 6.65597L107.647 9.772L84.2169 65.1266L63.8988 29.1898L48.8128 57.7286L69.8485 49.5796L72.1579 53.6642L45.5032 63.9895L42.5676 65.1266L41.3051 62.009L20.1503 9.772L18.8883 6.65597L21.924 5.48023ZM44.1403 56.6458L60.6296 25.452L50.9931 21.7193L42.8773 37.1078L33.9666 15.1239L31.7863 14.2795L26.0891 12.0725L44.1403 56.6458ZM77.89 16.3194L79.5344 16.9565L81.157 20.0331L84.3663 26.1183L88.9734 14.7521L79.1821 10.9596L77.1291 16.0247L77.89 16.3194ZM84.3901 7.94129L92.0497 10.8347L99.4463 7.96962L91.8817 5.0393L84.3901 7.94129ZM76.804 21.7192L67.1676 25.452L83.6568 54.1452L101.708 12.0725L93.8305 15.1239L84.9197 37.1075L76.804 21.7192ZM63.8984 21.7392L71.4631 18.8089L63.8985 15.8789L56.3339 18.809L63.8984 21.7392ZM35.7475 10.8347L43.407 7.94129L35.9154 5.03944L28.3507 7.96962L35.7475 10.8347Z" fill="#FECC00"/>
<path d="M50.0521 86.2766H63.4388V82.375H54.577V79.7499H62.4962V76.1315H54.577V73.6247H63.3212V69.7225H50.0521V86.2766ZM64.4995 86.2766H69.2135L71.2167 82.9895L73.1966 86.2766H78.0047L73.7146 79.7969L77.9103 73.4829H73.1726L71.2869 76.6283L69.4019 73.4829H64.5699L68.7893 79.8205L64.4995 86.2766ZM79.3948 90.0608H83.873V84.7163C84.6978 85.6855 85.8289 86.5606 87.7616 86.5606C90.7784 86.5606 93.3943 84.0306 93.3943 79.8682C93.3943 75.7298 90.7784 73.199 87.738 73.199C85.8289 73.199 84.7447 74.1211 83.873 75.1857V73.4829H79.3948V90.0608ZM86.3709 82.8004C84.9335 82.8004 83.7786 81.5944 83.7786 79.8919C83.7786 78.1655 84.9335 76.9592 86.3709 76.9592C87.8322 76.9592 88.9871 78.1655 88.9871 79.8443C88.9871 81.618 87.8322 82.8004 86.3709 82.8004ZM101.643 86.5842C104.189 86.5842 105.957 85.544 107.182 83.983L104.707 81.9256C103.788 82.8244 102.939 83.2261 101.879 83.2261C100.488 83.2261 99.475 82.5168 99.1215 81.1216H107.653C107.677 80.814 107.677 80.4831 107.677 80.1992C107.677 76.4393 105.65 73.199 101.242 73.199C97.4719 73.199 94.8083 76.1554 94.8083 79.8919C94.8083 83.9117 97.6364 86.5842 101.643 86.5842ZM99.0505 78.8274C99.2868 77.432 100.088 76.5101 101.266 76.5101C102.492 76.5101 103.317 77.4085 103.482 78.8274H99.0505ZM109.586 86.2766H114.064V82.3042C114.064 79.3478 115.384 77.9997 117.717 77.9997H118.094V73.2697C115.973 73.175 114.795 74.3105 114.064 76.0607V73.4829H109.586V86.2766ZM124.74 86.5369C125.989 86.5369 127.05 86.253 127.851 85.8042V82.2803C127.309 82.5404 126.743 82.7057 126.154 82.7057C125.329 82.7057 124.929 82.3277 124.929 81.4286V77.101H127.898V73.4829H124.929V70.2431H120.451V73.4829H118.942V77.101H120.451V82.3042C120.451 85.3546 122.053 86.5369 124.74 86.5369Z" fill="#2B2A29"/>
<path d="M6.59235 86.3951H10.8344L17.5278 69.7225H12.5077L8.76042 80.1992L5.01284 69.7225H-0.101227L6.59235 86.3951ZM23.6084 86.5842C27.7092 86.5842 30.6789 83.5339 30.6789 79.8919C30.6789 76.2022 27.733 73.199 23.6556 73.199C19.5549 73.199 16.5852 76.2493 16.5852 79.8919C16.5852 83.5808 19.5315 86.5842 23.6084 86.5842ZM23.6556 82.7768C22.0767 82.7768 20.945 81.4525 20.945 79.8919C20.945 78.307 21.9823 77.0065 23.6084 77.0065C25.188 77.0065 26.319 78.3306 26.319 79.8919C26.319 81.4766 25.2815 82.7768 23.6556 82.7768ZM32.659 86.2766H37.1367V69.0132H32.659V86.2766ZM44.7025 86.5369C45.9513 86.5369 47.0121 86.253 47.8132 85.8042V82.2803C47.2712 82.5404 46.7057 82.7057 46.1165 82.7057C45.2916 82.7057 44.8907 82.3277 44.8907 81.4286V77.101H47.8604V73.4829H44.8907V70.2431H40.4127V73.4829H38.9042V77.101H40.4127V82.3042C40.4127 85.3546 42.0154 86.5369 44.7025 86.5369Z" fill="#FECC00"/>
</svg>
