<svg width="40" height="40" viewBox="0 0 40 40" fill="none" xmlns="http://www.w3.org/2000/svg">
<path d="M20.6666 12L26.6666 21.3333L28.6666 18.6667L30.6666 16L32.6666 13.3333L33.3333 10V7.33333L30.6666 4.66667C30.1333 4.13333 29.1111 4 28.6666 4H25.3333C24.8 4 23.3333 4.44444 22.6666 4.66667L20.6666 7.33333V12Z" fill="#FECC00"/>
<circle cx="27.3334" cy="10" r="2" fill="white"/>
<path d="M32.438 3.88629C33.744 4.91029 34.644 6.56429 35.012 8.29629L35.142 8.34829L39.232 10.2403C39.4605 10.3455 39.6541 10.5137 39.7902 10.7253C39.9262 10.9368 39.999 11.1828 40 11.4343V36.1683C39.9985 36.3738 39.9495 36.5761 39.8567 36.7594C39.7639 36.9427 39.6299 37.1021 39.4652 37.2249C39.3005 37.3478 39.1096 37.4308 38.9074 37.4674C38.7053 37.5041 38.4974 37.4935 38.3 37.4363L26.962 34.2363L13.482 37.9523C13.2388 38.0195 12.9816 38.0168 12.74 37.9443L0.948 34.4343C0.675441 34.3542 0.435979 34.1884 0.265191 33.9614C0.0944019 33.7344 0.00139932 33.4584 0 33.1743L0 7.99629C0 7.11629 0.856 6.48429 1.71 6.73229L13.114 10.0543L18.91 8.28029C18.99 8.25629 19.0713 8.23962 19.154 8.23029C19.378 6.91829 20.004 5.65829 21.054 4.43029C22.3 2.97029 24.486 2.11429 26.616 2.01229C28.826 1.90629 30.514 2.37829 32.436 3.88429M2.666 9.76229V32.1923L12.406 35.0903V12.5963L2.666 9.76229ZM19.084 10.9903L15.072 12.2163V34.7743L25.202 31.9863V25.3963C25.202 24.6683 25.8 24.0783 26.536 24.0783C27.272 24.0783 27.868 24.6683 27.868 25.3983V31.7523L37.334 34.4223V12.2723L35.094 11.2323C35.0567 11.4523 35.008 11.6676 34.948 11.8783C34.5147 13.4124 33.785 14.8468 32.8 16.1003L27.846 22.2863C27.7156 22.4489 27.549 22.5789 27.3595 22.6659C27.17 22.7528 26.9628 22.7943 26.7545 22.7872C26.5461 22.78 26.3423 22.7243 26.1592 22.6245C25.9762 22.5247 25.8189 22.3835 25.7 22.2123L21.07 15.5063C20.3047 14.441 19.7707 13.4836 19.468 12.6343C19.2777 12.1027 19.1489 11.5511 19.084 10.9903ZM26.744 4.64829C25.292 4.71829 23.8 5.30229 23.09 6.13229C22.236 7.13229 21.816 8.06829 21.732 9.01629C21.632 10.1583 21.7 10.9643 21.984 11.7623C22.194 12.3523 22.612 13.1003 23.258 14.0023L26.88 19.2463L30.7 14.4763C31.4712 13.4917 32.0425 12.366 32.382 11.1623C32.862 9.48229 32.138 7.01429 30.782 5.95429C29.392 4.86429 28.342 4.57029 26.746 4.64829M27.022 6.04229C29.23 6.04229 31.022 7.81229 31.022 9.99629C31.0151 11.0508 30.59 12.0595 29.84 12.8009C29.0901 13.5422 28.0765 13.9556 27.022 13.9503C24.814 13.9503 23.022 12.1803 23.022 9.99629C23.022 7.81229 24.814 6.04229 27.022 6.04229ZM27.022 8.67829C26.8479 8.67724 26.6752 8.71049 26.514 8.77616C26.3527 8.84183 26.2059 8.93862 26.082 9.061C25.9582 9.18339 25.8596 9.32898 25.792 9.48946C25.7244 9.64994 25.689 9.82216 25.688 9.99629C25.688 10.7243 26.286 11.3143 27.022 11.3143C27.1961 11.3151 27.3687 11.2816 27.5299 11.2157C27.6911 11.1497 27.8377 11.0527 27.9614 10.9302C28.0851 10.8076 28.1834 10.6619 28.2508 10.5013C28.3181 10.3407 28.3532 10.1684 28.354 9.99429C28.3514 9.64331 28.2097 9.30769 27.96 9.06101C27.7103 8.81432 27.373 8.67669 27.022 8.67829Z" fill="#2B2A29"/>
</svg>
