<svg width="20" height="20" viewBox="0 0 20 20" fill="none" xmlns="http://www.w3.org/2000/svg">
<path fill-rule="evenodd" clip-rule="evenodd" d="M4.34781 19.2785H16.1765C16.6693 19.2782 17.1418 19.0823 17.4903 18.7338C17.8388 18.3854 18.0347 17.9128 18.035 17.42V17.4057C18.035 17.1616 17.987 16.9199 17.8936 16.6944C17.8002 16.4689 17.6633 16.264 17.4907 16.0915C17.3181 15.9189 17.1132 15.782 16.8877 15.6886C16.6622 15.5952 16.4205 15.5472 16.1765 15.5472H15.5472V3.10421C15.5472 2.4459 15.2857 1.81454 14.8202 1.34901C14.3548 0.883477 13.7234 0.621905 13.0651 0.621826H2.48751C2.14423 0.621826 1.86572 0.900334 1.86572 1.24392V16.7965C1.86572 17.4547 2.12723 18.0861 2.59271 18.5516C3.05819 19.017 3.68952 19.2785 4.34781 19.2785ZM16.1765 18.035H5.59707V17.4057C5.59715 17.2427 5.66193 17.0864 5.77717 16.9712C5.89242 16.8559 6.04871 16.7912 6.21169 16.7911H16.1765C16.3395 16.7912 16.4957 16.8559 16.611 16.9712C16.7262 17.0864 16.791 17.2427 16.7911 17.4057V17.42C16.7911 17.5831 16.7264 17.7394 16.6111 17.8547C16.4958 17.9701 16.3395 18.0349 16.1765 18.035ZM14.3036 15.5472V3.10421C14.3036 2.77577 14.173 2.46079 13.9408 2.22854C13.7085 1.9963 13.3936 1.86579 13.0651 1.86571H3.1096V16.7965C3.10968 17.1248 3.24015 17.4398 3.47234 17.672C3.70452 17.9043 4.01942 18.0348 4.34781 18.035H4.35319V17.406C4.35311 17.1619 4.40112 16.9202 4.49449 16.6946C4.58786 16.4691 4.72475 16.2642 4.89734 16.0916C5.06993 15.9189 5.27484 15.782 5.50036 15.6886C5.72588 15.5952 5.96759 15.5472 6.21169 15.5472H14.3036ZM4.97528 9.32839H8.70662C8.87148 9.32823 9.02954 9.26267 9.14612 9.1461C9.26269 9.02953 9.32825 8.87146 9.32841 8.7066C9.32841 8.36332 9.0496 8.08451 8.70662 8.08451H4.97528C4.63199 8.08451 4.35319 8.36332 4.35319 8.7066C4.35319 9.04989 4.63199 9.32839 4.97528 9.32839ZM4.97528 6.84093H12.438C12.6029 6.84077 12.761 6.77517 12.8776 6.65853C12.9941 6.54189 13.0597 6.38375 13.0598 6.21884C13.0596 6.05398 12.994 5.89592 12.8775 5.77934C12.7609 5.66277 12.6028 5.59721 12.438 5.59705H4.97528C4.63199 5.59705 4.35319 5.87586 4.35319 6.21884C4.35319 6.56183 4.63199 6.84093 4.97528 6.84093ZM4.97528 4.35317H12.438C12.5995 4.34816 12.7528 4.28046 12.8653 4.1644C12.9779 4.04833 13.0408 3.89303 13.0408 3.73138C13.0408 3.56973 12.9779 3.41442 12.8653 3.29836C12.7528 3.1823 12.5995 3.11459 12.438 3.10959H4.97528C4.63199 3.10959 4.35319 3.38809 4.35319 3.73138C4.35319 4.07466 4.63199 4.35317 4.97528 4.35317Z" fill="white"/>
</svg>
