<svg width="30" height="30" viewBox="0 0 30 30" fill="none" xmlns="http://www.w3.org/2000/svg">
<g clip-path="url(#clip0_0_2691)">
<path d="M15 30C6.7155 30 0 23.2845 0 15C0 6.7155 6.7155 0 15 0C23.2845 0 30 6.7155 30 15C30 23.2845 23.2845 30 15 30ZM15 27C18.1826 27 21.2348 25.7357 23.4853 23.4853C25.7357 21.2348 27 18.1826 27 15C27 11.8174 25.7357 8.76515 23.4853 6.51472C21.2348 4.26428 18.1826 3 15 3C11.8174 3 8.76515 4.26428 6.51472 6.51472C4.26428 8.76515 3 11.8174 3 15C3 18.1826 4.26428 21.2348 6.51472 23.4853C8.76515 25.7357 11.8174 27 15 27ZM13.5 19.5H16.5V22.5H13.5V19.5ZM16.5 17.0325V18H13.5V15.75C13.5 15.3522 13.658 14.9706 13.9393 14.6893C14.2206 14.408 14.6022 14.25 15 14.25C15.4261 14.25 15.8435 14.1289 16.2035 13.901C16.5635 13.673 16.8514 13.3475 17.0337 12.9624C17.2159 12.5772 17.2851 12.1482 17.233 11.7253C17.181 11.3023 17.0099 10.9029 16.7397 10.5734C16.4696 10.2439 16.1114 9.99784 15.7068 9.86395C15.3023 9.73006 14.8681 9.7138 14.4546 9.81706C14.0412 9.92031 13.6656 10.1388 13.3715 10.4472C13.0775 10.7556 12.877 11.1411 12.7935 11.559L9.8505 10.9695C10.0329 10.0576 10.4543 9.21056 11.0714 8.51488C11.6885 7.8192 12.4793 7.29987 13.3629 7.00998C14.2465 6.72009 15.1912 6.67003 16.1005 6.86492C17.0098 7.05982 17.8511 7.49267 18.5382 8.11924C19.2254 8.7458 19.7339 9.54361 20.0117 10.4311C20.2895 11.3186 20.3266 12.2639 20.1193 13.1705C19.912 14.077 19.4677 14.9122 18.8318 15.5908C18.1959 16.2693 17.3912 16.7669 16.5 17.0325Z" fill="#FECC00"/>
</g>
<defs>
<clipPath id="clip0_0_2691">
<rect width="30" height="30" fill="white"/>
</clipPath>
</defs>
</svg>
