<svg width="15" height="15" viewBox="0 0 15 15" fill="none" xmlns="http://www.w3.org/2000/svg">
<g clip-path="url(#clip0_0_3200)">
<path d="M14.125 13.125L11.4106 10.4106M11.4106 10.4106C11.8749 9.94632 12.2432 9.39511 12.4945 8.78847C12.7458 8.18182 12.8751 7.53163 12.8751 6.875C12.8751 6.21837 12.7458 5.56818 12.4945 4.96153C12.2432 4.35489 11.8749 3.80368 11.4106 3.33937C10.9463 2.87507 10.3951 2.50676 9.78847 2.25548C9.18183 2.0042 8.53163 1.87487 7.87501 1.87487C7.21838 1.87487 6.56818 2.0042 5.96154 2.25548C5.3549 2.50676 4.80369 2.87507 4.33938 3.33937C3.40168 4.27708 2.87488 5.54888 2.87488 6.875C2.87488 8.20112 3.40168 9.47292 4.33938 10.4106C5.27709 11.3483 6.54889 11.8751 7.87501 11.8751C9.20112 11.8751 10.4729 11.3483 11.4106 10.4106Z" stroke="#2B2A29" stroke-width="1.8" stroke-linecap="round" stroke-linejoin="round"/>
</g>
<defs>
<clipPath id="clip0_0_3200">
<rect width="15" height="15" fill="white"/>
</clipPath>
</defs>
</svg>
