<svg width="80" height="80" viewBox="0 0 80 80" fill="none" xmlns="http://www.w3.org/2000/svg">
<circle cx="30" cy="50" r="10.5" stroke="#FECC00" stroke-width="9"/>
<path d="M73.4427 30.1639V28.8525C73.4607 17.1113 65.255 6.96066 53.7706 4.51787V1.31148C53.7706 0.96365 53.6324 0.630072 53.3864 0.384122C53.1405 0.138173 52.8069 0 52.4591 0L44.5902 0C44.2424 0 43.9088 0.138173 43.6629 0.384122C43.4169 0.630072 43.2788 0.96365 43.2788 1.31148V4.50623C39.8736 5.22852 36.659 6.66047 33.8445 8.7087C31.0299 10.7569 28.6788 13.3754 26.9443 16.3934L29.2143 17.7049C31.0436 14.5486 33.6219 11.8912 36.7214 9.96721V15.7377H39.3443V8.56115C40.6107 7.99184 41.928 7.5435 43.2788 7.22213V19.6721C43.2788 20.02 43.4169 20.3535 43.6629 20.5995C43.9088 20.8454 44.2424 20.9836 44.5902 20.9836H52.4591C52.8069 20.9836 53.1405 20.8454 53.3864 20.5995C53.6324 20.3535 53.7706 20.02 53.7706 19.6721V7.19328C55.1219 7.51729 56.4393 7.96928 57.705 8.54311V15.7377H60.3279V9.93607C61.7628 10.8334 63.0922 11.8892 64.2912 13.0834C66.366 15.1512 68.011 17.609 69.1315 20.3155C70.252 23.0219 70.8258 25.9233 70.8197 28.8525V30.1639H66.8853V24.918C66.8853 24.5702 66.7471 24.2366 66.5012 23.9907C66.2552 23.7447 65.9217 23.6066 65.5738 23.6066H57.705C57.3572 23.6066 57.0236 23.7447 56.7776 23.9907C56.5317 24.2366 56.3935 24.5702 56.3935 24.918V28.8525H59.0165V26.2295H64.2624V30.1639H60.3279V32.7869H73.4427C74.8912 32.7869 76.0657 33.9613 76.0657 35.4098C76.0657 36.8584 74.8912 38.0328 73.4427 38.0328H55.082V40.6557H73.4427C76.3397 40.6557 78.6886 38.3069 78.6886 35.4098C78.6886 32.5128 76.3397 30.1639 73.4427 30.1639ZM51.1476 18.3607H45.9017V2.62295H51.1476V18.3607Z" fill="#2B2A29"/>
<path d="M1.31148 56.3934H7.50705C7.99095 58.0718 8.66222 59.6904 9.5082 61.2187L5.12557 65.6013C5.00378 65.723 4.90716 65.8676 4.84124 66.0267C4.77532 66.1858 4.74139 66.3563 4.74139 66.5285C4.74139 66.7007 4.77532 66.8712 4.84124 67.0303C4.90716 67.1894 5.00378 67.334 5.12557 67.4557L12.5443 74.8744C12.666 74.9962 12.8106 75.0928 12.9696 75.1587C13.1287 75.2247 13.2993 75.2586 13.4715 75.2586C13.6437 75.2586 13.8142 75.2247 13.9733 75.1587C14.1324 75.0928 14.2769 74.9962 14.3987 74.8744L18.7813 70.4918C20.3096 71.3378 21.9282 72.009 23.6066 72.4929V78.6885C23.6066 79.0363 23.7447 79.3699 23.9907 79.6159C24.2366 79.8618 24.5702 80 24.918 80H35.4098C35.7577 80 36.0912 79.8618 36.3372 79.6159C36.5831 79.3699 36.7213 79.0363 36.7213 78.6885V72.4929C38.3997 72.009 40.0183 71.3378 41.5466 70.4918L45.9292 74.8744C46.0509 74.9962 46.1955 75.0928 46.3546 75.1587C46.5137 75.2247 46.6842 75.2586 46.8564 75.2586C47.0286 75.2586 47.1991 75.2247 47.3582 75.1587C47.5173 75.0928 47.6619 74.9962 47.7836 74.8744L55.2023 67.4557C55.3241 67.334 55.4207 67.1894 55.4866 67.0303C55.5526 66.8712 55.5865 66.7007 55.5865 66.5285C55.5865 66.3563 55.5526 66.1858 55.4866 66.0267C55.4207 65.8676 55.3241 65.723 55.2023 65.6013L50.8197 61.2187C51.6656 59.6904 52.3369 58.0718 52.8208 56.3934H59.0164C59.3642 56.3934 59.6978 56.2553 59.9437 56.0093C60.1897 55.7634 60.3279 55.4298 60.3279 55.082V44.5902C60.3279 44.2423 60.1897 43.9087 59.9437 43.6628C59.6978 43.4168 59.3642 43.2787 59.0164 43.2787H52.8208C52.3364 41.6005 51.6651 39.9819 50.8197 38.4534L55.2023 34.0708C55.3241 33.9491 55.4207 33.8045 55.4866 33.6454C55.5526 33.4863 55.5865 33.3158 55.5865 33.1436C55.5865 32.9714 55.5526 32.8009 55.4866 32.6418C55.4207 32.4827 55.3241 32.3381 55.2023 32.2164L47.7836 24.7977C47.6619 24.6759 47.5173 24.5793 47.3582 24.5134C47.1991 24.4474 47.0286 24.4135 46.8564 24.4135C46.6842 24.4135 46.5137 24.4474 46.3546 24.5134C46.1955 24.5793 46.0509 24.6759 45.9292 24.7977L41.5466 29.1803C40.0183 28.3343 38.3997 27.6631 36.7213 27.1792V20.9836C36.7213 20.6358 36.5831 20.3022 36.3372 20.0562C36.0912 19.8103 35.7577 19.6721 35.4098 19.6721H24.918C24.5702 19.6721 24.2366 19.8103 23.9907 20.0562C23.7447 20.3022 23.6066 20.6358 23.6066 20.9836V27.1792C21.9282 27.6631 20.3096 28.3343 18.7813 29.1803L14.3987 24.7977C14.2769 24.6759 14.1324 24.5793 13.9733 24.5134C13.8142 24.4474 13.6437 24.4135 13.4715 24.4135C13.2993 24.4135 13.1287 24.4474 12.9696 24.5134C12.8106 24.5793 12.666 24.6759 12.5443 24.7977L5.12557 32.2164C5.00378 32.3381 4.90716 32.4827 4.84124 32.6418C4.77532 32.8009 4.74139 32.9714 4.74139 33.1436C4.74139 33.3158 4.77532 33.4863 4.84124 33.6454C4.90716 33.8045 5.00378 33.9491 5.12557 34.0708L9.5082 38.4534C8.66272 39.9819 7.99147 41.6005 7.50705 43.2787H1.31148C0.96365 43.2787 0.630072 43.4168 0.384122 43.6628C0.138173 43.9087 0 44.2423 0 44.5902L0 55.082C0 55.4298 0.138173 55.7634 0.384122 56.0093C0.630072 56.2553 0.96365 56.3934 1.31148 56.3934ZM2.62295 45.9016H8.51557C8.80976 45.9015 9.09538 45.8026 9.32652 45.6206C9.55766 45.4386 9.7209 45.1841 9.79 44.8982C10.3003 42.79 11.1362 40.7743 12.2675 38.9236C12.4209 38.6726 12.4854 38.3772 12.4507 38.0851C12.4159 37.793 12.284 37.521 12.0761 37.3129L7.90656 33.1436L13.4715 27.5787L17.6408 31.7482C17.849 31.9564 18.1212 32.0885 18.4135 32.1232C18.7059 32.158 19.0015 32.0933 19.2526 31.9397C21.1022 30.807 23.1178 29.971 25.2261 29.4621C25.512 29.393 25.7664 29.2298 25.9484 28.9986C26.1304 28.7675 26.2294 28.4819 26.2295 28.1877V22.2951H34.0984V28.1877C34.0984 28.4819 34.1974 28.7675 34.3794 28.9986C34.5614 29.2298 34.8158 29.393 35.1018 29.4621C37.2101 29.971 39.2257 30.807 41.0752 31.9397C41.3264 32.0933 41.622 32.158 41.9143 32.1232C42.2067 32.0885 42.4789 31.9564 42.687 31.7482L46.8564 27.5787L52.4213 33.1436L48.2518 37.3129C48.0439 37.521 47.9119 37.793 47.8772 38.0851C47.8425 38.3772 47.907 38.6726 48.0603 38.9236C49.1917 40.7743 50.0275 42.79 50.5379 44.8982C50.607 45.1841 50.7702 45.4386 51.0013 45.6206C51.2325 45.8026 51.5181 45.9015 51.8123 45.9016H57.7049V53.7705H51.8123C51.5181 53.7706 51.2325 53.8696 51.0013 54.0515C50.7702 54.2335 50.607 54.488 50.5379 54.7739C50.029 56.8822 49.193 58.8978 48.0603 60.7474C47.9067 60.9985 47.842 61.2941 47.8768 61.5864C47.9115 61.8788 48.0436 62.151 48.2518 62.3592L52.4213 66.5285L46.8564 72.0934L42.687 67.9239C42.4789 67.7157 42.2067 67.5836 41.9143 67.5489C41.622 67.5141 41.3264 67.5788 41.0752 67.7324C39.2257 68.8651 37.2101 69.7011 35.1018 70.21C34.8158 70.2791 34.5614 70.4423 34.3794 70.6735C34.1974 70.9046 34.0984 71.1902 34.0984 71.4844V77.377H26.2295V71.4844C26.2294 71.1902 26.1304 70.9046 25.9484 70.6735C25.7664 70.4423 25.512 70.2791 25.2261 70.21C23.1178 69.7011 21.1022 68.8651 19.2526 67.7324C19.0015 67.5788 18.7059 67.5141 18.4135 67.5489C18.1212 67.5836 17.849 67.7157 17.6408 67.9239L13.4715 72.0934L7.90656 66.5285L12.0761 62.3592C12.2843 62.151 12.4164 61.8788 12.4511 61.5864C12.4858 61.2941 12.4212 60.9985 12.2675 60.7474C11.1349 58.8978 10.2989 56.8822 9.79 54.7739C9.7209 54.488 9.55766 54.2335 9.32652 54.0515C9.09538 53.8696 8.80976 53.7706 8.51557 53.7705H2.62295V45.9016Z" fill="#2B2A29"/>
<path d="M30.164 65.5738C38.8558 65.5738 45.9017 58.5279 45.9017 49.8361C45.9017 41.1443 38.8558 34.0984 30.164 34.0984C21.4722 34.0984 14.4263 41.1443 14.4263 49.8361C14.4359 58.524 21.4761 65.5641 30.164 65.5738ZM30.164 36.7213C37.4073 36.7213 43.2787 42.5928 43.2787 49.8361C43.2787 57.0794 37.4073 62.9508 30.164 62.9508C22.9207 62.9508 17.0492 57.0794 17.0492 49.8361C17.0569 42.5961 22.924 36.729 30.164 36.7213Z" fill="#2B2A29"/>
<path d="M30.1638 57.705C34.5093 57.705 38.0326 54.1817 38.0326 49.8361C38.0326 45.4906 34.5093 41.9673 30.1638 41.9673C25.8182 41.9673 22.2949 45.4906 22.2949 49.8361C22.2993 54.1804 25.8195 57.7006 30.1638 57.705ZM30.1638 44.5902C33.0608 44.5902 35.4097 46.9391 35.4097 49.8361C35.4097 52.7332 33.0608 55.082 30.1638 55.082C27.2667 55.082 24.9179 52.7332 24.9179 49.8361C24.9179 46.9391 27.2667 44.5902 30.1638 44.5902Z" fill="#2B2A29"/>
</svg>
