<svg width="80" height="80" viewBox="0 0 80 80" fill="none" xmlns="http://www.w3.org/2000/svg">
<g clip-path="url(#clip0_0_952)">
<path d="M17 70.5L26 73.5L29 72.5L36 69L41 64L45 55.5L46 46L45 42.5L40.5 40.5L37 36.5L35 33.5H17V35L14 38.5L11 42L6 42.5V46L7 56L11 64L17 70.5Z" fill="#FECC00"/>
<path d="M77.6738 -0.752197V66.2957H41.71C37.9493 70.7386 32.6157 74.0437 26.3828 75.4626L26.0498 75.5378L25.7168 75.4626C13.3351 72.6441 4.5 62.384 4.5 50.5417V40.4763H6C10.8433 40.4763 14.5241 36.9318 14.5244 32.8484V31.3484H24.5498V-0.752197H77.6738ZM63.6416 22.2195V25.2195H38.5801V22.2195H63.6416ZM63.6416 13.0916V16.0916H38.5801V13.0916H63.6416ZM7.5 50.5417C7.5 60.7155 15.0451 69.8067 26.0488 72.4578C37.053 69.8071 44.5986 60.7159 44.5986 50.5417V43.3816C39.5577 42.7713 35.4127 39.1339 34.6875 34.3484H17.4111C16.6859 39.134 12.5411 42.7714 7.5 43.3816V50.5417ZM47.5986 50.5417C47.5986 55.1472 46.2627 59.5135 43.9014 63.2957H74.6738V2.2478H27.5498V31.3484H37.5742V32.8484C37.5745 36.9318 41.2555 40.4762 46.0986 40.4763H47.5986V50.5417Z" fill="#2B2A29"/>
</g>
<defs>
<clipPath id="clip0_0_952">
<rect width="80" height="80" fill="white"/>
</clipPath>
</defs>
</svg>
