<svg width="116" height="20" viewBox="0 0 116 20" fill="none" xmlns="http://www.w3.org/2000/svg">
<g clip-path="url(#clip0_4027_11)">
<path fill-rule="evenodd" clip-rule="evenodd" d="M10.7567 1.31769C10.69 1.17313 10.5833 1.05071 10.4492 0.964905C10.3151 0.879098 10.1592 0.833496 10 0.833496C9.8408 0.833496 9.68493 0.879098 9.55084 0.964905C9.41674 1.05071 9.31003 1.17313 9.24333 1.31769L6.85167 6.50102L1.18416 7.17352C1.02604 7.19219 0.876574 7.25577 0.753456 7.35674C0.630337 7.4577 0.538721 7.59182 0.48945 7.74323C0.440179 7.89464 0.435315 8.05699 0.475435 8.21108C0.515555 8.36517 0.598978 8.50453 0.715832 8.61269L4.9075 12.4877L3.795 18.0877C3.7641 18.2438 3.77854 18.4055 3.83662 18.5536C3.8947 18.7018 3.99398 18.8302 4.12274 18.9237C4.25149 19.0173 4.40433 19.072 4.56319 19.0814C4.72204 19.0908 4.88027 19.0545 5.01917 18.9769L10 16.1885L14.9808 18.9769C15.1198 19.0548 15.2782 19.0914 15.4373 19.082C15.5964 19.0727 15.7495 19.018 15.8785 18.9243C16.0074 18.8306 16.1068 18.702 16.1648 18.5535C16.2228 18.4051 16.2371 18.2431 16.2058 18.0869L15.0933 12.4885L19.2842 8.61269C19.401 8.50453 19.4844 8.36517 19.5246 8.21108C19.5647 8.05699 19.5598 7.89464 19.5105 7.74323C19.4613 7.59182 19.3697 7.4577 19.2465 7.35674C19.1234 7.25577 18.974 7.19219 18.8158 7.17352L13.1475 6.50019L10.7567 1.31769Z" fill="#FECC00"/>
</g>
<g clip-path="url(#clip1_4027_11)">
<path fill-rule="evenodd" clip-rule="evenodd" d="M34.7567 1.31769C34.69 1.17313 34.5833 1.05071 34.4492 0.964905C34.3151 0.879098 34.1592 0.833496 34 0.833496C33.8408 0.833496 33.6849 0.879098 33.5508 0.964905C33.4167 1.05071 33.31 1.17313 33.2433 1.31769L30.8517 6.50102L25.1842 7.17352C25.026 7.19219 24.8766 7.25577 24.7535 7.35674C24.6303 7.4577 24.5387 7.59182 24.4895 7.74323C24.4402 7.89464 24.4353 8.05699 24.4754 8.21108C24.5156 8.36517 24.599 8.50453 24.7158 8.61269L28.9075 12.4877L27.795 18.0877C27.7641 18.2438 27.7785 18.4055 27.8366 18.5536C27.8947 18.7018 27.994 18.8302 28.1227 18.9237C28.2515 19.0173 28.4043 19.072 28.5632 19.0814C28.722 19.0908 28.8803 19.0545 29.0192 18.9769L34 16.1885L38.9808 18.9769C39.1198 19.0548 39.2782 19.0914 39.4373 19.082C39.5964 19.0727 39.7495 19.018 39.8785 18.9243C40.0074 18.8306 40.1068 18.702 40.1648 18.5535C40.2228 18.4051 40.2371 18.2431 40.2058 18.0869L39.0933 12.4885L43.2842 8.61269C43.401 8.50453 43.4844 8.36517 43.5246 8.21108C43.5647 8.05699 43.5598 7.89464 43.5105 7.74323C43.4613 7.59182 43.3697 7.4577 43.2465 7.35674C43.1234 7.25577 42.974 7.19219 42.8158 7.17352L37.1475 6.50019L34.7567 1.31769Z" fill="#FECC00"/>
</g>
<g clip-path="url(#clip2_4027_11)">
<path fill-rule="evenodd" clip-rule="evenodd" d="M58.7567 1.31769C58.69 1.17313 58.5833 1.05071 58.4492 0.964905C58.3151 0.879098 58.1592 0.833496 58 0.833496C57.8408 0.833496 57.6849 0.879098 57.5508 0.964905C57.4167 1.05071 57.31 1.17313 57.2433 1.31769L54.8517 6.50102L49.1842 7.17352C49.026 7.19219 48.8766 7.25577 48.7535 7.35674C48.6303 7.4577 48.5387 7.59182 48.4895 7.74323C48.4402 7.89464 48.4353 8.05699 48.4754 8.21108C48.5156 8.36517 48.599 8.50453 48.7158 8.61269L52.9075 12.4877L51.795 18.0877C51.7641 18.2438 51.7785 18.4055 51.8366 18.5536C51.8947 18.7018 51.994 18.8302 52.1227 18.9237C52.2515 19.0173 52.4043 19.072 52.5632 19.0814C52.722 19.0908 52.8803 19.0545 53.0192 18.9769L58 16.1885L62.9808 18.9769C63.1198 19.0548 63.2782 19.0914 63.4373 19.082C63.5964 19.0727 63.7495 19.018 63.8785 18.9243C64.0074 18.8306 64.1068 18.702 64.1648 18.5535C64.2228 18.4051 64.2371 18.2431 64.2058 18.0869L63.0933 12.4885L67.2842 8.61269C67.401 8.50453 67.4844 8.36517 67.5246 8.21108C67.5647 8.05699 67.5598 7.89464 67.5105 7.74323C67.4613 7.59182 67.3697 7.4577 67.2465 7.35674C67.1234 7.25577 66.974 7.19219 66.8158 7.17352L61.1475 6.50019L58.7567 1.31769Z" fill="#FECC00"/>
</g>
<g clip-path="url(#clip3_4027_11)">
<path fill-rule="evenodd" clip-rule="evenodd" d="M82.7567 1.31769C82.69 1.17313 82.5833 1.05071 82.4492 0.964905C82.3151 0.879098 82.1592 0.833496 82 0.833496C81.8408 0.833496 81.6849 0.879098 81.5508 0.964905C81.4167 1.05071 81.31 1.17313 81.2433 1.31769L78.8517 6.50102L73.1842 7.17352C73.026 7.19219 72.8766 7.25577 72.7535 7.35674C72.6303 7.4577 72.5387 7.59182 72.4895 7.74323C72.4402 7.89464 72.4353 8.05699 72.4754 8.21108C72.5156 8.36517 72.599 8.50453 72.7158 8.61269L76.9075 12.4877L75.795 18.0877C75.7641 18.2438 75.7785 18.4055 75.8366 18.5536C75.8947 18.7018 75.994 18.8302 76.1227 18.9237C76.2515 19.0173 76.4043 19.072 76.5632 19.0814C76.722 19.0908 76.8803 19.0545 77.0192 18.9769L82 16.1885L86.9808 18.9769C87.1198 19.0548 87.2782 19.0914 87.4373 19.082C87.5964 19.0727 87.7495 19.018 87.8785 18.9243C88.0074 18.8306 88.1068 18.702 88.1648 18.5535C88.2228 18.4051 88.2371 18.2431 88.2058 18.0869L87.0933 12.4885L91.2842 8.61269C91.401 8.50453 91.4844 8.36517 91.5246 8.21108C91.5647 8.05699 91.5598 7.89464 91.5105 7.74323C91.4613 7.59182 91.3697 7.4577 91.2465 7.35674C91.1234 7.25577 90.974 7.19219 90.8158 7.17352L85.1475 6.50019L82.7567 1.31769Z" fill="#FECC00"/>
</g>
<g clip-path="url(#clip4_4027_11)">
<path fill-rule="evenodd" clip-rule="evenodd" d="M106.757 1.31769C106.69 1.17313 106.583 1.05071 106.449 0.964905C106.315 0.879098 106.159 0.833496 106 0.833496C105.841 0.833496 105.685 0.879098 105.551 0.964905C105.417 1.05071 105.31 1.17313 105.243 1.31769L102.852 6.50102L97.1842 7.17352C97.026 7.19219 96.8766 7.25577 96.7535 7.35674C96.6303 7.4577 96.5387 7.59182 96.4895 7.74323C96.4402 7.89464 96.4353 8.05699 96.4754 8.21108C96.5156 8.36517 96.599 8.50453 96.7158 8.61269L100.907 12.4877L99.795 18.0877C99.7641 18.2438 99.7785 18.4055 99.8366 18.5536C99.8947 18.7018 99.994 18.8302 100.123 18.9237C100.251 19.0173 100.404 19.072 100.563 19.0814C100.722 19.0908 100.88 19.0545 101.019 18.9769L106 16.1885L110.981 18.9769C111.12 19.0548 111.278 19.0914 111.437 19.082C111.596 19.0727 111.75 19.018 111.878 18.9243C112.007 18.8306 112.107 18.702 112.165 18.5535C112.223 18.4051 112.237 18.2431 112.206 18.0869L111.093 12.4885L115.284 8.61269C115.401 8.50453 115.484 8.36517 115.525 8.21108C115.565 8.05699 115.56 7.89464 115.511 7.74323C115.461 7.59182 115.37 7.4577 115.247 7.35674C115.123 7.25577 114.974 7.19219 114.816 7.17352L109.147 6.50019L106.757 1.31769Z" fill="#FECC00"/>
</g>
<defs>
<clipPath id="clip0_4027_11">
<rect width="20" height="20" fill="white"/>
</clipPath>
<clipPath id="clip1_4027_11">
<rect width="20" height="20" fill="white" transform="translate(24)"/>
</clipPath>
<clipPath id="clip2_4027_11">
<rect width="20" height="20" fill="white" transform="translate(48)"/>
</clipPath>
<clipPath id="clip3_4027_11">
<rect width="20" height="20" fill="white" transform="translate(72)"/>
</clipPath>
<clipPath id="clip4_4027_11">
<rect width="20" height="20" fill="white" transform="translate(96)"/>
</clipPath>
</defs>
</svg>
