<svg width="22" height="22" viewBox="0 0 22 22" fill="none" xmlns="http://www.w3.org/2000/svg">
<rect width="22" height="22" rx="11" fill="#2F89CE"/>
<path d="M4.60255 11.3519L7.25796 12.3248L8.2931 15.5974C8.33811 15.8185 8.60815 15.8628 8.78818 15.7301L10.2734 14.536C10.4084 14.4034 10.6335 14.4034 10.8135 14.536L13.4689 16.4377C13.6489 16.5703 13.9189 16.4819 13.9639 16.2608L15.9442 6.97376C15.9892 6.75264 15.7642 6.53152 15.5392 6.61997L4.60255 10.777C4.33251 10.8655 4.33251 11.2635 4.60255 11.3519ZM8.15809 11.8384L13.3788 8.69849C13.4689 8.65426 13.5589 8.78694 13.4689 8.83116L9.19324 12.7671C9.05822 12.8998 8.92319 13.0767 8.92319 13.2978L8.78818 14.3591C8.78818 14.4918 8.56314 14.536 8.51814 14.3591L7.97805 12.4133C7.84303 12.1922 7.93306 11.9268 8.15809 11.8384Z" fill="white"/>
</svg>
