<svg width="22" height="22" viewBox="0 0 22 22" fill="none" xmlns="http://www.w3.org/2000/svg">
<rect width="22" height="22" rx="11" fill="#48C95F"/>
<path d="M15.3598 7.18437C14.2732 6.10156 12.8244 5.5 11.2951 5.5C8.11585 5.5 5.54024 8.06667 5.54024 11.2349C5.54024 12.2375 5.82195 13.2401 6.30488 14.0823L5.5 17.05L8.55854 16.2479C9.40366 16.6891 10.3293 16.9297 11.2951 16.9297C14.4744 16.9297 17.05 14.363 17.05 11.1948C17.0098 9.71094 16.4463 8.26719 15.3598 7.18437ZM14.072 13.2802C13.9512 13.601 13.3878 13.9219 13.1061 13.962C12.8646 14.0021 12.5427 14.0021 12.2207 13.9219C12.0195 13.8417 11.7378 13.7615 11.4159 13.601C9.96707 12.9995 9.04146 11.5557 8.96098 11.4354C8.88049 11.3552 8.35732 10.6734 8.35732 9.95156C8.35732 9.22969 8.71951 8.90885 8.84024 8.74844C8.96098 8.58802 9.12195 8.58802 9.24268 8.58802C9.32317 8.58802 9.4439 8.58802 9.52439 8.58802C9.60488 8.58802 9.72561 8.54792 9.84634 8.82865C9.96707 9.10937 10.2488 9.83125 10.289 9.87135C10.3293 9.95156 10.3293 10.0318 10.289 10.112C10.2488 10.1922 10.2085 10.2724 10.128 10.3526C10.0476 10.4328 9.96707 10.5531 9.92683 10.5932C9.84634 10.6734 9.76585 10.7536 9.84634 10.874C9.92683 11.0344 10.2085 11.4755 10.6512 11.8766C11.2146 12.3578 11.6573 12.5182 11.8183 12.5984C11.9793 12.6786 12.0598 12.6385 12.1402 12.5583C12.2207 12.4781 12.5024 12.1573 12.5829 11.9969C12.6634 11.8365 12.7841 11.8766 12.9049 11.9167C13.0256 11.9568 13.75 12.3177 13.8707 12.3979C14.0317 12.4781 14.1122 12.5182 14.1524 12.5583C14.1927 12.6786 14.1927 12.9594 14.072 13.2802Z" fill="white"/>
</svg>
